<svg xmlns="http://www.w3.org/2000/svg" width="19" height="14" fill="none"><path fill="#506BD1" d="M19 6.844q0-.234-.032-.467a1.3 1.3 0 0 0-.096-.335 1.3 1.3 0 0 0-.5-.878 1.67 1.67 0 0 0-1.038-.353h-.027a.3.3 0 0 1-.076-.113c-.5-1.143-1-2.286-1.509-3.426-.38-.837-1.039-1.258-2.052-1.26Q9.5-.006 5.33.005A2.5 2.5 0 0 0 4.19.26c-.44.24-.77.61-.933 1.046-.47 1.078-.95 2.153-1.411 3.234a.8.8 0 0 1-.158.264h-.02a1.67 1.67 0 0 0-1.045.358c-.285.23-.462.546-.497.885a1.9 1.9 0 0 0-.121.67C0 8.172 0 9.62 0 11.073c0 .04 0 .082.01.136h1.52v.18c0 .503-.01 1.005.019 1.518a1 1 0 0 0 .217.593c.137.174.33.309.554.387a1.49 1.49 0 0 0 1.36-.116c.372-.228.587-.606.57-1.005.01-.514 0-1.03 0-1.556h10.504v.305c0 .477-.014.958.032 1.432.057.393.333.735.736.91a1.5 1.5 0 0 0 1.267-.036c.389-.199.639-.556.666-.951.021-.502 0-.993.014-1.489v-.186H19zM3.543 3.914c.31-.731.616-1.465.935-2.195a.8.8 0 0 1 .354-.42 1 1 0 0 1 .575-.133H13.6a1 1 0 0 1 .575.132c.168.101.292.25.35.423.431 1.005.851 2.01 1.277 3.004l.017.079H3.17c.13-.308.25-.598.374-.89zm-.611 4.69a1.55 1.55 0 0 1-1.02-.38 1.2 1.2 0 0 1-.417-.906 1.2 1.2 0 0 1 .432-.9 1.56 1.56 0 0 1 1.027-.366c.518.003.993.25 1.249.646.255.397.25.884-.012 1.277s-.742.633-1.26.629zm13.144 0a1.57 1.57 0 0 1-1.042-.349 1.22 1.22 0 0 1-.453-.897 1.2 1.2 0 0 1 .403-.915 1.55 1.55 0 0 1 1.02-.394 1.56 1.56 0 0 1 1.037.361c.276.238.435.562.439.903.01.335-.132.66-.396.903-.264.241-.627.38-1.008.383z"/></svg>