<svg width="24" height="24" fill="none" xmlns="http://www.w3.org/2000/svg"><g clip-path="url(#clip0_780_2490)"><circle cx="12" cy="12" r="12" fill="#C1EDE8"/><g clip-path="url(#clip1_780_2490)" fill="#000"><path d="M8.612 5.788c-.212.188-.377.73-.377 1.177 0 .776-.023.8-.965.8-1.882 0-1.858-.047-1.858 4.659 0 2.94.094 4.282.282 4.47.353.353 4.659.4 4.659.047 0-.117-.988-.259-2.165-.282L6 16.589l-.07-2.8-.071-2.777.73.611c.61.495.987.612 2.023.612 1.247 0 1.27 0 1.27.706v.706h2.824v-.706c0-.706.023-.706 1.27-.706 1.036 0 1.412-.117 2-.611l.73-.612v1.176c0 .989-.07 1.224-.47 1.341-.26.071-.683.071-.942 0-.282-.094-.47-.047-.47.118 0 .141-.26.377-.589.518-.353.164-.588.447-.588.776 0 .259-.118.612-.282.777-.189.188-.189.353.047.635.258.306.188.353-.447.353-.4 0-.73.094-.73.235 0 .118.33.236.706.236.4 0 .706.094.706.235 0 .117.212.235.447.235.235 0 .494.165.588.353.07.235.377.353.8.306.353-.024.777.023.941.141.165.094.353.024.424-.212.094-.212.423-.494.73-.611.4-.142.54-.33.446-.589-.094-.212-.023-.54.142-.73.211-.258.211-.446 0-.776-.142-.258-.212-.611-.142-.8.071-.211-.07-.4-.352-.494-.471-.14-.495-.33-.495-3.058 0-3.318-.047-3.412-1.858-3.412-.942 0-.965-.024-.965-.777 0-1.317-.518-1.576-3.13-1.576-1.74 0-2.329.094-2.611.376zm4.988.377c.33.33.376 1.6.07 1.6-.117 0-.258-.283-.305-.66l-.071-.634h-4l-.07.635c-.048.376-.189.659-.306.659-.306 0-.26-1.27.07-1.6.377-.377 4.235-.377 4.612 0zm-.894 1.13c0 .423-.165.47-1.53.47-1.176 0-1.53-.07-1.53-.353 0-.236.377-.353 1.483-.424.8-.047 1.483-.094 1.53-.117.023-.024.047.164.047.423zm4 1.646c0 .777-.612 2.024-1.2 2.447-.447.306-1.224.377-4.26.377H7.53l-.706-.66c-.54-.446-.776-.917-.87-1.646l-.141-.988h5.458c5.318 0 5.436 0 5.436.47zm-4.47 3.765c0 .4-.166.47-.942.47-.777 0-.941-.07-.941-.47 0-.4.165-.47.941-.47.776 0 .941.07.941.47zm4.705 1.835c.541.565.941 1.435.682 1.577-.117.094-.211.33-.211.54 0 .8-2.165 1.554-2.447.848-.071-.188-.306-.33-.518-.33-.235 0-.33-.14-.259-.329.07-.165 0-.447-.141-.588-.188-.188-.188-.33 0-.518.141-.141.212-.423.141-.612-.094-.211.047-.376.377-.47.258-.07.494-.212.494-.306 0-.33 1.506-.188 1.882.188z"/><path d="M16.023 15.623c-.165.189-.494.283-.8.189-.517-.118-.517-.118-.07.4l.447.494.564-.518c.306-.282.542-.588.542-.706 0-.305-.377-.211-.683.142zM11.059 16.941c0 .118.117.236.235.236a.236.236 0 00.235-.236c0-.141-.094-.235-.235-.235a.236.236 0 00-.235.235z"/></g></g><defs><clipPath id="clip0_780_2490"><path fill="#fff" d="M0 0h24v24H0z"/></clipPath><clipPath id="clip1_780_2490"><path fill="#fff" transform="translate(5.412 5.412)" d="M0 0h13.177v13.177H0z"/></clipPath></defs></svg>