<svg width="24" height="24" fill="none" xmlns="http://www.w3.org/2000/svg"><g clip-path="url(#clip0_780_2486)"><circle cx="12" cy="12" r="12" fill="#C1EDE8"/><g clip-path="url(#clip1_780_2486)" fill="#000"><path d="M6.856 5.59c-.101.075-.177 2.71-.177 5.827v5.65l.633.254c.355.127.634.406.634.634 0 .33.633.38 4.56.38h4.562V6.425l-.608-.253c-.33-.127-.685-.355-.786-.481-.177-.305-8.54-.406-8.818-.102zm5.017.582l-3.8.127-.077 5.372c-.05 4.56-.126 5.397-.43 5.397-.33 0-.38-.811-.38-5.575V5.92l4.257.05 4.231.05-3.8.153zm4.89 6.233l-.075 5.55H8.326l-.076-5.626-.05-5.65 4.104-.05c2.28-.052 4.206 0 4.333.075.101.076.152 2.635.127 5.701z"/><path d="M9.086 7.692c-.101.152 1.064.254 3.294.254s3.396-.102 3.294-.254c-.101-.152-1.47-.253-3.294-.253s-3.192.101-3.294.253zM8.96 11.113v2.18l1.596-.077 1.57-.076.077-2.103.076-2.078h-3.32v2.154zm2.787-.127v1.774h-2.28V9.213h2.28v1.773zM13.191 9.137c.456.05 1.267.05 1.774 0 .532-.051.177-.102-.811-.102-.963 0-1.394.051-.963.102zM13.191 10.404c.456.05 1.267.05 1.774 0 .532-.051.177-.102-.811-.102-.963 0-1.394.05-.963.102zM13.191 11.67c.456.051 1.267.051 1.774 0 .532-.05.177-.1-.811-.1-.963 0-1.394.05-.963.1zM12.76 13.014c0 .126.608.253 1.369.253.76 0 1.47-.127 1.545-.253.102-.152-.43-.254-1.368-.254-.862 0-1.546.101-1.546.254zM8.96 14.28c0 .153 1.317.254 3.42.254 2.103 0 3.421-.101 3.421-.254 0-.151-1.318-.253-3.42-.253-2.104 0-3.422.102-3.422.254zM8.96 15.547c0 .153 1.317.254 3.42.254 2.103 0 3.421-.101 3.421-.254 0-.152-1.318-.253-3.42-.253-2.104 0-3.422.101-3.422.253zM9.086 16.814c.102.152 1.47.254 3.294.254 1.825 0 3.193-.102 3.294-.254.102-.152-1.064-.253-3.294-.253s-3.395.101-3.294.253z"/></g></g><defs><clipPath id="clip0_780_2486"><path fill="#fff" d="M0 0h24v24H0z"/></clipPath><clipPath id="clip1_780_2486"><path fill="#fff" transform="translate(5.412 5.412)" d="M0 0h13.177v13.177H0z"/></clipPath></defs></svg>