<svg xmlns="http://www.w3.org/2000/svg" width="18" height="15" fill="none"><path fill="#506BD1" d="M5.625 7.031v.938c0 .259-.252.468-.563.468H3.938c-.31 0-.562-.21-.562-.468V7.03c0-.259.252-.468.563-.468h1.124c.311 0 .563.21.563.468Zm-.563 3.282H3.938c-.31 0-.562.21-.562.468v.938c0 .259.252.469.563.469h1.124c.311 0 .563-.21.563-.47v-.937c0-.259-.252-.469-.563-.469Zm4.5-3.75H8.438c-.311 0-.563.21-.563.468v.938c0 .259.252.468.563.468h1.124c.311 0 .563-.21.563-.468V7.03c0-.259-.252-.468-.563-.468Zm0 3.75H8.438c-.311 0-.563.21-.563.468v.938c0 .259.252.469.563.469h1.124c.311 0 .563-.21.563-.47v-.937c0-.259-.252-.469-.563-.469Zm4.5-3.75h-1.124c-.311 0-.563.21-.563.468v.938c0 .259.252.468.563.468h1.124c.311 0 .563-.21.563-.468V7.03c0-.259-.252-.468-.563-.468Zm0 3.75h-1.124c-.311 0-.563.21-.563.468v.938c0 .259.252.469.563.469h1.124c.311 0 .563-.21.563-.47v-.937c0-.259-.252-.469-.563-.469Zm-10.124-7.5h1.124c.311 0 .563-.21.563-.47V.47c0-.26-.252-.469-.563-.469H3.938c-.31 0-.562.21-.562.469v1.875c0 .259.252.469.563.469ZM18 3.75v9.375C18 14.161 16.993 15 15.75 15H2.25C1.007 15 0 14.16 0 13.125V3.75c0-1.035 1.007-1.875 2.25-1.875h.563v.469c0 .516.504.937 1.124.937h1.126c.62 0 1.125-.42 1.125-.937v-.469h5.625v.469c0 .516.505.937 1.124.937h1.126c.62 0 1.124-.42 1.124-.937v-.469h.563c1.243 0 2.25.84 2.25 1.875m-1.125 1.875c0-.516-.504-.938-1.125-.938H2.25c-.62 0-1.125.422-1.125.938v7.5c0 .517.505.938 1.125.938h13.5c.62 0 1.125-.42 1.125-.938zm-3.938-2.813h1.126c.31 0 .562-.21.562-.468V.469c0-.26-.252-.469-.563-.469h-1.124c-.311 0-.563.21-.563.469v1.875c0 .259.252.469.563.469Z"/></svg>