<svg xmlns="http://www.w3.org/2000/svg" width="24" height="24" fill="none"><g clip-path="url(#a)"><circle cx="12" cy="12" r="12" fill="#C1EDE8"/><g clip-path="url(#b)"><g clip-path="url(#c)"><path fill="#000" d="M9.62 8.75a1.88 1.88 0 0 0 .127-2.784A1.89 1.89 0 0 0 6.523 7.3c0 .582.265 1.103.681 1.449a1.89 1.89 0 0 0-1.792 1.884v.556c0 .122.099.222.222.222h5.555a.223.223 0 0 0 .223-.222v-.556A1.89 1.89 0 0 0 9.619 8.75zM6.966 7.3a1.446 1.446 0 0 1 2.465-1.02c.271.27.424.638.424 1.02A1.446 1.446 0 0 1 7.39 8.322 1.45 1.45 0 0 1 6.967 7.3zm4 3.667h-5.11v-.333A1.446 1.446 0 0 1 7.301 9.19h2.222a1.446 1.446 0 0 1 1.444 1.444z"/></g><g clip-path="url(#d)"><path fill="#000" d="M16.82 15.95a1.88 1.88 0 0 0 .127-2.784 1.89 1.89 0 0 0-3.224 1.335c0 .582.265 1.103.682 1.449a1.89 1.89 0 0 0-1.793 1.884v.556c0 .122.1.222.222.222h5.555a.223.223 0 0 0 .223-.222v-.556a1.89 1.89 0 0 0-1.793-1.884zm-2.653-1.45a1.446 1.446 0 0 1 2.466-1.02c.27.27.423.638.423 1.02a1.446 1.446 0 0 1-2.465 1.022 1.45 1.45 0 0 1-.424-1.021zm4 3.667h-5.11v-.333A1.446 1.446 0 0 1 14.5 16.39h2.222a1.446 1.446 0 0 1 1.444 1.444v.333z"/></g><path fill="#000" d="M13.467 6.34a.22.22 0 0 1 .173.074.24.24 0 0 1 0 .346l-1.234 1.233a.24.24 0 0 1-.345 0 .24.24 0 0 1 0-.345l1.233-1.234a.22.22 0 0 1 .173-.074"/><path fill="#000" d="M12.233 7.574a.22.22 0 0 1 .173.074L13.64 8.88a.24.24 0 0 1 0 .346.24.24 0 0 1-.346 0l-1.233-1.234a.24.24 0 0 1 0-.345.22.22 0 0 1 .172-.074z"/><path fill="#000" d="M12.233 7.574h3.947c.149 0 .247.098.247.246s-.098.247-.247.247h-3.947c-.148 0-.246-.099-.246-.247s.098-.246.246-.246m4.125.504c.137 0 .247.11.247.247v3.207a.247.247 0 0 1-.493 0V8.325c0-.137.11-.247.247-.247z"/><path fill="#000" d="m16.11 7.572.002.753h.493l.002-.64s-.007-.038-.016-.058-.016-.045-.016-.045-.041 0-.055-.005-.045-.004-.045-.004zM10.415 17.84a.22.22 0 0 1-.172-.074.24.24 0 0 1 0-.345l1.233-1.234a.24.24 0 0 1 .345 0 .24.24 0 0 1 0 .346l-1.233 1.233a.22.22 0 0 1-.173.074"/><path fill="#000" d="M11.649 16.607a.22.22 0 0 1-.173-.074l-1.233-1.234a.24.24 0 0 1 0-.345.24.24 0 0 1 .345 0l1.234 1.233a.24.24 0 0 1 0 .346.22.22 0 0 1-.173.074"/><path fill="#000" d="M11.649 16.607H7.702c-.148 0-.247-.099-.247-.247s.099-.247.247-.247h3.947c.148 0 .247.099.247.247s-.1.247-.247.247m-4.125-.505a.247.247 0 0 1-.247-.246v-3.207a.247.247 0 1 1 .493 0v3.207c0 .136-.11.246-.246.246"/><path fill="#000" d="M7.771 16.608v-.752h-.494l-.002.64s.007.037.016.058l.016.045s.041 0 .055.005.045.004.045.004z"/></g></g><defs><clipPath id="a"><path fill="#fff" d="M0 0h24v24H0z"/></clipPath><clipPath id="b"><path fill="#fff" d="M5.412 5.412h13.177v13.177H5.412z"/></clipPath><clipPath id="c"><path fill="#fff" d="M5.412 5.412h6v6h-6z"/></clipPath><clipPath id="d"><path fill="#fff" d="M12.612 12.612h6v6h-6z"/></clipPath></defs></svg>