<svg xmlns="http://www.w3.org/2000/svg" width="24" height="24" fill="none"><g clip-path="url(#a)"><circle cx="12" cy="12" r="12" fill="#C1EDE8"/><g fill="#000" clip-path="url(#b)"><path d="M6.251 4.526v5.351h.608V5.214h8.918V8.61c0 .347.345.3.345 0 .042-.365-.028-.962.11-.962h2.153V6.116c0-1.108 0-1.599-.845-1.599-.877-.024-2.694-.002-5.33.01zm11.503.688c.236.21.218.482.218.902 0 1.01.12 1.01-.877 1.01s-1.001 0-1.001-1.01c0-.41.048-.737.251-.925.162-.15.456-.204.665-.204.131 0 .534-.009.744.227"/><path d="M9.037 7.406c-.183.183-.315.577-.315.918 0 .34-.183.682-.393.76-.21.105-.393.263-.393.394 0 .105.183.157.393.078.21-.105.55-.026.734.132.368.288 1.994.236 2.492-.08.131-.078.446-.078.656 0 .21.08.472.027.577-.13.079-.158.393-.289.682-.289.262 0 .498-.105.498-.21 0-.262-.787-.236-1.259.053-.157.105-.446.105-.577.026-.157-.105-.472-.026-.682.157-.288.236-.472.236-.682.027-.21-.21-.393-.184-.63.157-.261.341-.393.367-.655.131-.262-.262-.21-.472.262-.97.918-.97.21-2.073-.708-1.154m.735.76c-.315.577-.787.656-.787.158 0-.446.55-.997.84-.814.104.08.078.368-.053.656m2.335 3.541h.002zm3.691 3.808c.277-.29.61-.745.568-1.237l-2.854-2.443s-.516-.11-1.134.005a3 3 0 0 0-.271-.133 3.3 3.3 0 0 0-1.27-.233l-.064.002-.529.453.083-.007.033-.005c.013-.003.219-.044.51-.043.262 0 .59.033.917.149a2.2 2.2 0 0 0-.538.337l-1.8 1.542-.016.013a.5.5 0 0 0 0 .787.73.73 0 0 0 .92 0l.99-.848q.257.08.5.1c.22.022.426.014.61-.008.446-.055.659-.112.659-.112l2.334 1.999.034-.026.337.289c.088.075.13.172.13.271a.36.36 0 0 1-.13.271.5.5 0 0 1-.317.112.5.5 0 0 1-.316-.112.26.26 0 0 0-.165-.058.26.26 0 0 0-.166.058.2.2 0 0 0-.068.141.2.2 0 0 0 .068.142.36.36 0 0 1 .132.27.35.35 0 0 1-.132.272.5.5 0 0 1-.316.112.5.5 0 0 1-.317-.112.26.26 0 0 0-.165-.059.26.26 0 0 0-.165.059.2.2 0 0 0-.068.141.2.2 0 0 0 .068.142.36.36 0 0 1 .131.27.36.36 0 0 1-.13.271.5.5 0 0 1-.318.113.5.5 0 0 1-.316-.113l-.198-.169a.26.26 0 0 0-.165-.06.26.26 0 0 0-.166.06.2.2 0 0 0-.068.14.2.2 0 0 0 .068.142.36.36 0 0 1 .132.271.36.36 0 0 1-.132.271.5.5 0 0 1-.316.112.5.5 0 0 1-.317-.112l-.14-.12.048-.042a.5.5 0 0 0 0-.784.73.73 0 0 0-.915 0l-.049.042-.024-.02a.494.494 0 0 0-.116-.644.73.73 0 0 0-.751-.099l-.048-.041a.494.494 0 0 0-.116-.643.73.73 0 0 0-.752-.1l-.048-.04a.494.494 0 0 0-.115-.644.73.73 0 0 0-.752-.1l-.234-.2-.014-.01a3 3 0 0 1-.196-.168l-.005-.006a2.2 2.2 0 0 1-.39-.491 1.3 1.3 0 0 1-.154-.403l-.384.328q.05.132.118.25c.14.247.32.445.462.582v.002l.006.004a3 3 0 0 0 .233.2l.204.175-.376.322a.5.5 0 0 0 0 .783.73.73 0 0 0 .915 0 .5.5 0 0 0 0 .784.73.73 0 0 0 .916 0 .5.5 0 0 0 0 .784.73.73 0 0 0 .915 0l.376-.322-.187.16a.5.5 0 0 0 0 .784.726.726 0 0 0 .915 0l.187-.16.14.12c.179.152.414.23.648.23a1 1 0 0 0 .646-.23.74.74 0 0 0 .26-.457q.127.031.255.032a1 1 0 0 0 .647-.23.73.73 0 0 0 .268-.553l-.002-.044.05.002a1 1 0 0 0 .647-.23.73.73 0 0 0 .268-.553l-.002-.044.051.002a1 1 0 0 0 .646-.23.73.73 0 0 0 .269-.553c0-.2-.09-.401-.268-.554zM8.585 9.958l-3.868 3.31 1.604 1.373 3.867-3.31zM6.65 13.47a.45.45 0 0 1-.566 0 .31.31 0 0 1 0-.484.45.45 0 0 1 .566 0 .31.31 0 0 1 0 .484m8.49-3.593-1.604 1.373 3.867 3.31 1.604-1.372zm1.933 3.513a.31.31 0 0 1 0-.485.45.45 0 0 1 .566 0 .31.31 0 0 1 0 .485.45.45 0 0 1-.566 0"/></g></g><defs><clipPath id="a"><path fill="#fff" d="M0 0h24v24H0z"/></clipPath><clipPath id="b"><path fill="#fff" d="M4 4h16v16H4z"/></clipPath></defs></svg>