<svg xmlns="http://www.w3.org/2000/svg" width="15" height="12" fill="none"><path fill="#506BD1" d="M11.25 0h-7.5C1.683 0 0 1.603 0 3.574v4.852C0 10.396 1.683 12 3.75 12h7.5C13.317 12 15 10.397 15 8.426V3.574C15 1.604 13.317 0 11.25 0m2.679 3.574v4.852c0 .268-.056.522-.137.765l-3.083-3.193 3.083-3.189c.081.243.137.497.137.765M3.75 1.021h7.5c.79 0 1.495.335 1.986.857L9.47 5.773a2.7 2.7 0 0 1-1.97.824 2.7 2.7 0 0 1-1.97-.824L1.764 1.878A2.72 2.72 0 0 1 3.75 1.02ZM1.071 8.426V3.574c0-.268.056-.521.137-.764l3.083 3.188-3.083 3.194a2.4 2.4 0 0 1-.137-.766m10.179 2.553h-7.5c-.79 0-1.495-.335-1.985-.855l3.27-3.388a3.87 3.87 0 0 0 2.465.882 3.87 3.87 0 0 0 2.465-.882l3.27 3.388a2.72 2.72 0 0 1-1.985.855"/></svg>