<svg xmlns="http://www.w3.org/2000/svg" width="18" height="15" fill="none"><path fill="#506BD1" d="M17.881 4.091a.55.55 0 0 0-.444-.23h-1.786V2.17c0-.33-.252-.598-.562-.598H6.606L4.96.136A.54.54 0 0 0 4.602 0H.562C.252 0 0 .267 0 .597v13.806l.002.044v.014l.01.065v.002l.016.06.004.013.018.047.007.017.02.04.034.054.008.012.004.005.031.037.009.01.044.043.011.009a.6.6 0 0 0 .164.093l.041.013.017.005.045.008.016.002A.3.3 0 0 0 .562 15H15.09a.57.57 0 0 0 .545-.452l2.349-9.944a.63.63 0 0 0-.102-.513ZM4.401 1.195 6.048 2.63a.54.54 0 0 0 .357.136h8.121V3.86H2.911a.57.57 0 0 0-.545.452L1.125 9.566v-8.37zm10.249 12.61H1.283l2.067-8.75h13.366z"/></svg>