<svg xmlns="http://www.w3.org/2000/svg" width="24" height="24" fill="none"><g clip-path="url(#a)"><path fill="#FAFAFA" d="M3.222 6.905 9.015 5.2v-.001a.28.28 0 0 1 .36.276V16.82a.28.28 0 0 1-.222.275L3.36 18.8v.001a.28.28 0 0 1-.36-.276V7.18c0-.135.095-.248.222-.275m5.59-1.061L3.563 7.39v10.766l5.25-1.546z"/><path fill="#FAFAFA" d="m14.625 7.39-5.25-1.546V16.61l5.25 1.546zM9.173 5.2l5.793 1.705c.127.027.222.14.222.275v11.345a.281.281 0 0 1-.36.276h-.001l-5.793-1.706a.28.28 0 0 1-.222-.275V5.475a.28.28 0 0 1 .361-.276"/><path fill="#FAFAFA" d="M14.847 6.905 20.64 5.2v-.001a.28.28 0 0 1 .36.276V16.82a.28.28 0 0 1-.221.275L14.986 18.8v.001a.28.28 0 0 1-.361-.276V7.18c0-.135.095-.248.222-.275m5.59-1.061-5.25 1.546v10.766l5.25-1.546z"/><path fill="#FAFAFA" d="M3.174 14.276a.281.281 0 1 0 .214.52l.52-.214a.281.281 0 1 0-.214-.52zm17.048-2.383a.281.281 0 0 0-.279-.488l-.488.28a.281.281 0 0 0 .28.488zM18.27 13.01a.281.281 0 0 0-.28-.488l-.487.279a.281.281 0 0 0 .279.488zm-1.953 1.117a.281.281 0 0 0-.28-.488l-.488.279a.281.281 0 0 0 .28.488zm-2.244.433a.281.281 0 1 0 .22-.518l-.518-.22a.28.28 0 1 0-.22.519zM12 13.682a.28.28 0 1 0 .22-.518l-.519-.22a.281.281 0 1 0-.22.518zm-2.072-.88a.28.28 0 1 0 .22-.517l-.518-.22a.281.281 0 1 0-.22.518zm-1.86.067a.281.281 0 1 0-.213-.52l-.52.214a.281.281 0 1 0 .214.52zm-2.08.856a.281.281 0 0 0-.214-.52l-.52.214a.281.281 0 1 0 .214.52z"/><path fill="#247066" d="M18.794 8.031a1.386 1.386 0 0 0-.981-.406 1.386 1.386 0 0 0-1.388 1.387c0 .635.767 1.723 1.387 2.59.619-.867 1.388-1.957 1.388-2.59a1.39 1.39 0 0 0-.406-.98m-.237-.82a1.95 1.95 0 0 1 1.057 1.057c.096.23.148.482.148.744 0 .825-.862 2.032-1.533 2.971l-.094.132-.077.107a.28.28 0 0 1-.474.025l.17-.121-.17.12c-.086-.122-.121-.17-.143-.2l-.014-.02-.002-.002-.002-.002-.003-.005v-.001c-.677-.944-1.557-2.17-1.557-3.004a1.94 1.94 0 0 1 .57-1.378 1.95 1.95 0 0 1 2.124-.423"/><path fill="#247066" d="M17.813 8.032a.92.92 0 0 1 .92.922.92.92 0 0 1-.92.921.92.92 0 0 1-.922-.921.92.92 0 0 1 .922-.922m.253.668a.358.358 0 0 0-.612.254.358.358 0 0 0 .612.253.36.36 0 0 0 0-.507"/></g><defs><clipPath id="a"><path fill="#fff" d="M0 0h24v24H0z"/></clipPath></defs></svg>