<svg xmlns="http://www.w3.org/2000/svg" width="14" height="16" fill="none"><path fill="#506BD1" d="M11.768 4.783v-2.21c0-.553-.33-1.337-1.898-1.937C8.798.226 7.383 0 5.884 0 4.386 0 2.97.226 1.898.636.329 1.236 0 2.02 0 2.573v2.326c0 .552.33 1.336 1.898 1.936q.162.061.334.118v2.094C.789 9.517 0 10.238 0 11.101v2.326c0 .553.33 1.337 1.898 1.937 1.072.41 2.487.636 3.986.636 1.498 0 2.914-.226 3.986-.636 1.569-.6 1.898-1.384 1.898-1.937v-2.21a7 7 0 0 0 .334-.118C13.671 10.5 14 9.715 14 9.163V6.837c0-.863-.789-1.585-2.232-2.054m1.286 2.054c0 .21-.255.479-.682.72-.946.53-2.537.848-4.256.848s-3.31-.317-4.256-.849a2.4 2.4 0 0 1-.43-.302 13.5 13.5 0 0 0 2.454.217c1.498 0 2.914-.226 3.986-.636.865-.33 1.352-.718 1.616-1.09.726.244 1.568.666 1.568 1.092m-7.17-5.833c2.969 0 4.938.944 4.938 1.568S8.852 4.14 5.884 4.14.946 3.197.946 2.572c0-.624 1.97-1.568 4.938-1.568M.946 4.9c0-.174.176-.389.479-.594q.215.105.472.204c1.073.41 2.488.636 3.987.636 1.498 0 2.914-.226 3.986-.636q.259-.099.473-.204c.303.205.479.42.479.594 0 .624-1.97 1.567-4.938 1.567C2.915 6.466.946 5.523.946 4.9m1.567 5.11c.264.373.752.76 1.617 1.09 1.072.41 2.487.637 3.986.637.862 0 1.696-.075 2.454-.217a2.4 2.4 0 0 1-.43.302c-.946.531-2.537.848-4.256.848s-3.311-.317-4.256-.848c-.427-.24-.683-.51-.683-.72 0-.425.842-.848 1.568-1.092m3.371 4.986c-2.969 0-4.938-.943-4.938-1.567 0-.175.176-.39.48-.595 1.086.53 2.724.841 4.458.841s3.372-.312 4.458-.84c.304.205.48.42.48.594 0 .624-1.97 1.567-4.938 1.567m2.232-4.264c-2.969 0-4.938-.944-4.938-1.568 0-.174.176-.389.48-.594 1.086.529 2.724.84 4.458.84s3.372-.311 4.458-.84c.304.205.48.42.48.594 0 .624-1.97 1.568-4.938 1.568"/></svg>