<svg xmlns="http://www.w3.org/2000/svg" width="24" height="24" fill="none"><g clip-path="url(#a)"><circle cx="12" cy="12" r="12" fill="#C1EDE8"/><g fill="#000" clip-path="url(#b)"><path d="m9.716 10.088-.056.02.758.16a9.7 9.7 0 0 0 1.967.194q.533 0 1.04-.053a9 9 0 0 0 1.59-.278l.06-.012-.007-.003c1.498-.419 2.424-1.16 2.424-1.85 0-.972-1.89-1.977-5.053-1.977-3.162 0-5.052 1.005-5.052 1.977 0 .675.888 1.4 2.33 1.822zm1.946-.967q-.537-.175-.603-.591l-.024-.15-.148-.03a.2.2 0 0 1-.073-.027l.031-.101c.008-.015.056-.055.146-.081l.098-.028.042-.094a.9.9 0 0 1 .179-.261q.049-.05.082-.079a.45.45 0 0 0 .142-.192c.261.087.553.096.756.087l.096-.002c.936 0 1.164.257 1.255.45l.042.09.096.028c.09.026.139.067.145.078l.033.105a.3.3 0 0 1-.073.026l-.148.032-.024.149q-.068.415-.603.591l-.171.056.047.408a.41.41 0 0 0 .274.324l.162.06-.161.013a10.7 10.7 0 0 1-1.9-.02l.146-.053a.41.41 0 0 0 .28-.326l.046-.406zm.777-2.393c3.072 0 4.613.986 4.613 1.538 0 .452-.947 1.23-2.719 1.575l-.916-.343-.002-.023c.44-.19.627-.484.7-.74a.5.5 0 0 0 .234-.198.4.4 0 0 0 .037-.313l-.042-.135c-.044-.144-.173-.266-.351-.34-.325-.55-1.067-.616-1.608-.616l-.114.002a1.7 1.7 0 0 1-.626-.074.6.6 0 0 1-.136-.063.28.28 0 0 0-.285-.02l-.133.075v.135q-.001.064.013.148l.001.01-.01.01a2 2 0 0 0-.098.093q-.135.136-.224.303c-.176.073-.303.194-.347.336l-.041.136a.4.4 0 0 0 .036.313q.077.128.234.197c.074.257.26.55.7.74l-.002.024-.903.326C8.74 9.47 7.827 8.71 7.827 8.266c0-.552 1.541-1.538 4.613-1.538z"/><path d="M17.272 11.922v-.055c.693-.487 1.099-1.088 1.099-1.746V8.266c0-1.628-2.55-2.856-5.931-2.856S6.508 6.638 6.508 8.266v.498c-.716.48-1.098 1.065-1.098 1.698v1.856c0 .724.491 1.38 1.318 1.891v1.404c0 1.67 2.605 2.977 5.931 2.977s5.931-1.308 5.931-2.977v-1.856c0-.7-.458-1.33-1.318-1.835m.879 1.835c0 1.405-2.566 2.636-5.492 2.636q-.19 0-.376-.007l-.112-.005a10 10 0 0 1-.532-.038l-.091-.01c-1.808-.194-3.345-.846-4.017-1.67l-.027-.032-.029-.04q.465.199 1.006.347c.975.641 2.493 1.008 4.178 1.008 2.977 0 5.053-1.153 5.053-2.189 0-.305-.186-.609-.538-.885l.015-.048.021-.068.02-.08.015-.07.012-.08.009-.071.002-.02c.454.307.883.749.883 1.322m-4.584 3.04.02-.002a11 11 0 0 0 .83-.1v1.316q-.426.07-.88.105V16.8l.03-.002zm1.289-.183.036-.008a10 10 0 0 0 .35-.08l.044-.012q.116-.03.229-.062v1.316a9 9 0 0 1-.66.162v-1.316zm1.098-.301.035-.012.05-.018a7 7 0 0 0 .266-.103l.074-.03.015-.005v1.31q-.21.09-.44.172zm.879-.373.11-.06q.033-.016.064-.034.128-.07.246-.146l.019-.012v1.28a4 4 0 0 1-.44.273V15.94zm-8.787-.252q.207.131.44.25v1.303a4 4 0 0 1-.44-.273zm-1.318-3.295.019.012q.118.075.246.146l.063.035.111.059v1.112h-.315l-.124-.084zm.967.492q.13.054.267.102l.05.018.034.013v1.313a7 7 0 0 1-.439-.172v-1.31l.015.006zm1.064.345q.17.044.349.08l.036.009v1.316l-.037-.008a9 9 0 0 1-.622-.155v-1.315l.23.062zm1.281.232a9 9 0 0 0 .374.038l.02.002.028.002v1.314a12 12 0 0 1-.45-.042l-.212-.028q-.109-.016-.216-.034V13.4q.178.03.361.05zm1.301.076q.221-.001.44-.011v1.32h-.014q-.212.008-.426.009c-.147 0-.293-.008-.44-.014V13.53h.03q.203.008.41.009zm-4.393-4.11.011.012q.073.091.157.18l.039.039q.074.075.156.148l.038.035.038.032v1.224c-.282-.302-.44-.633-.44-.977v-.694zm.878.768.02.012q.117.075.245.146l.064.035.11.06v1.3a4 4 0 0 1-.439-.273zm.88.457.014.005.074.03q.13.054.266.103l.05.018.035.012v1.314a7 7 0 0 1-.44-.173zm.878.307q.112.033.229.062l.044.012q.171.042.35.08l.036.008v1.316a9 9 0 0 1-.66-.162zm1.098.243a10 10 0 0 0 .457.062q.185.023.373.038l.02.002.029.002v1.317a11 11 0 0 1-.879-.105zm1.758.138q.206 0 .41-.008h.029v1.312c-.146.006-.292.014-.44.014q-.221 0-.439-.01v-1.317h.03q.203.009.41.009m.927-.038q.189-.016.373-.037l.095-.012q.183-.023.362-.05v1.313l-.247.04-.132.017q-.248.03-.5.048v-1.315q.015 0 .029-.002zm1.655-.27.044-.011q.117-.03.23-.062v1.316a9 9 0 0 1-.659.162v-1.316l.036-.008a9 9 0 0 0 .35-.08zm.797-.242a8 8 0 0 0 .266-.102l.075-.03.014-.006v1.31q-.21.09-.44.172v-1.313l.036-.013zm.969-.437q.127-.07.246-.146l.018-.012v1.28q-.2.143-.44.273v-1.3l.112-.06zm-5.99 4.929h.025l.028.002.055.001a12 12 0 0 0 .741.005l.099-.003.04-.002.061-.002.102-.004.118-.007.178-.011.13-.011.162-.014.128-.014.159-.019.128-.017.152-.021.127-.02.148-.025.125-.024.142-.028.124-.027.137-.03.12-.03.134-.034.116-.032.13-.037.114-.036.125-.04.11-.037.12-.043.107-.04.116-.046.102-.043a6 6 0 0 0 .41-.192l.1-.053a5 5 0 0 0 .44-.269 4 4 0 0 0 .307-.237 4 4 0 0 0 .262-.252l.114-.131.054-.07.047-.065.035-.052c.195.169.302.34.302.484 0 .594-1.628 1.75-4.613 1.75a9.5 9.5 0 0 1-2.236-.246q.186.014.375.022m3.838-.951v-1.323l.042-.015q.122-.042.241-.087.08-.033.156-.068v1.32a7 7 0 0 1-.439.173m-.926-1.057q.139-.03.275-.064l.212-.062v1.323a9 9 0 0 1-.66.163v-1.32zm1.805.67V12.68q.226-.068.44-.146v1.139a5 5 0 0 1-.44.273zm-3.079-.46.216-.027q.159-.018.316-.04l.13-.023v1.321l-.055.01-.199.028-.155.021a11 11 0 0 1-.46.045l-.01.001v-1.32zm4.397-1.167q-.002.251-.108.49l-.02.042a1.8 1.8 0 0 1-.265.392l-.04.045-.006.007v-.937q.23-.102.439-.216zm-7.908 3.826q.212.09.44.168v1.315a7 7 0 0 1-.44-.173zm.878.306q.319.093.66.164v1.316a9 9 0 0 1-.66-.162zm1.099.245.104.014a9 9 0 0 0 .409.054q.125.015.252.025.056.006.114.01v1.318a11 11 0 0 1-.88-.105zm7.03-7.268v.695c0 .343-.158.674-.44.976V9.875l.037-.033.039-.034q.082-.073.156-.149l.039-.039q.084-.088.157-.18zM12.44 5.85c3.079 0 5.491 1.062 5.491 2.417 0 1.404-2.566 2.636-5.492 2.636-2.925 0-5.491-1.232-5.491-2.636 0-1.355 2.412-2.417 5.492-2.417M6.508 9.306v.815q0 .076.008.152l.007.05q.005.05.014.099l.014.058q.01.046.022.088l.02.062.028.082.027.064a1.9 1.9 0 0 0 .346.546 2 2 0 0 0 .117.128l.068.067.06.057.074.065.065.056.081.064.07.053.087.062.073.05q.046.032.096.062l.074.047.108.063.073.041q.067.038.138.073l.052.027q.096.048.197.095l.071.03.137.06.088.035.129.05.097.036.128.045.103.034a8 8 0 0 0 .37.11l.113.03.135.035.256.059.119.024a9 9 0 0 0 .535.094 10 10 0 0 0 .436.055l.288.027a11 11 0 0 0 .297.02q.058.005.117.008l.025.002q-.263.012-.53.012c-2.925 0-5.492-1.231-5.492-2.636 0-.484.311-.872.66-1.156zm-.659 3.012v-.694l.012.013q.072.09.157.18l.038.038q.075.075.156.149l.039.034.038.033v1.224c-.282-.303-.44-.633-.44-.977m1.318 3.295v-.694q.186.232.44.445v1.226c-.282-.302-.44-.633-.44-.977m5.053 2.528v-1.317h.032a11 11 0 0 0 .817 0h.03v1.317a12 12 0 0 1-.88 0zm5.93-3.222v.694c0 .344-.156.675-.438.977v-1.224l.037-.032.039-.035q.082-.073.156-.148l.038-.039a3 3 0 0 0 .157-.18l.012-.013z"/></g></g><defs><clipPath id="a"><path fill="#fff" d="M0 0h24v24H0z"/></clipPath><clipPath id="b"><path fill="#fff" d="M5.41 5.41h13.18v13.18H5.41z"/></clipPath></defs></svg>