<svg width="24" height="24" fill="none" xmlns="http://www.w3.org/2000/svg"><g clip-path="url(#clip0_780_2488)"><circle cx="12" cy="12" r="12" fill="#C1EDE8"/><g clip-path="url(#clip1_780_2488)" fill="#000"><path d="M14.225 6.686c-.907.93-.994 1.188-.432 1.512.259.173-.087.216-1.404.238-1.47 0-1.815.065-2.052.389-.152.237-.67.475-1.145.561-2.355.432-3.975 2.484-3.716 4.71.13 1.1 1.21 3.131 1.383 2.613.065-.151-.13-.562-.41-.929-.411-.561-.497-.95-.497-2.138 0-1.275.086-1.556.626-2.268C7.68 9.926 9.56 9.386 11.18 10.056c1.037.432 1.534.886 2.03 1.88.973 1.879.152 4.255-1.792 5.27-.692.367-2.614.41-3.219.065-.237-.13-.54-.173-.691-.13-.454.173 1.318.8 2.268.8 1.166 0 2.549-.627 3.175-1.426.476-.605.584-.627 2.57-.735l2.096-.108.065-.756c.043-.41.216-.842.389-.929.172-.108.302-.518.302-1.015 0-.713-.086-.886-.475-.972-.389-.108-.497-.28-.475-.778 0-.345.086-.69.15-.777.239-.216.174-1.534-.064-1.685-.13-.087-.216.173-.216.626v.778h-2.42c-2.505 0-4.276-.432-4.276-1.037 0-.367 3.694-.367 4.06 0 .217.216.368.216.692 0 .238-.13.67-.26.972-.26.302 0 .54-.107.54-.215 0-.13-.194-.216-.454-.216-.453 0-.453 0 .044-.41l.518-.41-.907-.887c-.475-.496-.907-.885-.95-.885-.044 0-.454.367-.886.842zm1.512.238l.648.648-.648.648-.648.648-.627-.627-.626-.648.583-.626c.346-.346.627-.648.648-.67.022 0 .324.26.67.627zm1.296 4.363l.065.605h-1.685c-1.664 0-1.728-.022-2.204-.648l-.475-.67 2.117.065 2.117.065.065.583zm1.08 1.728l.065.605h-2.052c-1.642 0-2.074-.065-2.074-.302 0-.173-.065-.476-.13-.67-.13-.302.108-.324 1.988-.28l2.138.064.065.583zm-.821 1.685v.648h-1.728c-1.793 0-1.922-.086-1.598-.95.107-.281.475-.346 1.728-.346h1.598v.648zM6.297 7.226l-.734.756.67.648c.367.367.734.67.842.67.238 0 1.36-1.145 1.36-1.383 0-.172-1.187-1.425-1.338-1.425-.044 0-.41.324-.8.734zm1.275 1.21l-.475.475-.497-.475-.497-.454.475-.497.454-.496.518.496.497.476-.475.475z"/><path d="M8.069 11.028c-1.577.95-1.923 3.24-.692 4.644 1.232 1.404 3.327 1.469 4.623.108.475-.497.626-.885.713-1.793.173-2.052-1.015-3.391-2.981-3.391-.583 0-1.253.173-1.663.432zm3.11.346c1.188.734 1.62 2.354.972 3.52-.454.821-1.577 1.534-2.42 1.534-1.533 0-2.98-1.685-2.72-3.132.388-1.966 2.505-2.96 4.168-1.922z"/><path d="M9.257 12.216c-.476.626-.476.842-.065 1.188.453.367.432 1.296-.043 1.296-.303 0-.281.065.108.454l.496.432.41-.497c.498-.605.54-1.102.109-1.469-.346-.302-.454-1.188-.108-.972.367.216.237-.238-.151-.605-.368-.302-.41-.28-.756.173zm.194.8c-.065.172-.13.107-.13-.13-.021-.238.044-.368.108-.281.065.065.087.259.022.41zm.648 1.511c-.065.152-.108.043-.108-.259s.043-.41.108-.28c.043.15.043.41 0 .54z"/></g></g><defs><clipPath id="clip0_780_2488"><path fill="#fff" d="M0 0h24v24H0z"/></clipPath><clipPath id="clip1_780_2488"><path fill="#fff" transform="translate(5.412 5.412)" d="M0 0h13.177v13.177H0z"/></clipPath></defs></svg>