<svg xmlns="http://www.w3.org/2000/svg" width="21" height="15" fill="none"><path fill="#506BD1" d="M17.788 12.92l-.336-.571a5.77 5.77 0 002.685-4.9c0-2.014-1.04-3.86-2.752-4.934l.336-.57a6.46 6.46 0 013.087 5.504c0 2.215-1.14 4.262-3.02 5.47z"/><path fill="#506BD1" d="M16.344 11.375l-.436-.503a4.6 4.6 0 001.544-3.423 4.68 4.68 0 00-1.544-3.457l.436-.504a5.27 5.27 0 011.78 3.96c0 1.511-.639 2.954-1.78 3.927M5.068 15a1.3 1.3 0 01-1.242-.906l-1.04-3.457h-.101C.906 10.637 0 9.395 0 6.945s.906-3.692 2.685-3.692h5.94L12.518.401a.9.9 0 01.57-.202 1.01 1.01 0 011.008 1.007V12.45a1.01 1.01 0 01-1.007 1.007c-.202 0-.37-.067-.537-.168l-3.927-2.651H5.504l.839 2.685c.134.403.067.806-.201 1.141-.269.336-.638.537-1.074.537zM2.685 3.925c-.94 0-2.014.335-2.014 3.02s1.074 3.02 2.014 3.02h.57l1.209 3.927c.067.269.335.437.604.437.201 0 .369-.101.503-.269a.59.59 0 00.1-.57L4.565 9.966h4.263l4.094 2.718c.201.135.503 0 .503-.268V1.173c0-.269-.302-.403-.503-.269l-4.094 3.02z"/></svg>