<svg xmlns="http://www.w3.org/2000/svg" width="18" height="15" fill="none"><path fill="#506BD1" d="M1.333 9.982h2c.737 0 1.334.616 1.334 1.115v2.788C4.667 14.5 4.07 15 3.333 15h-2C.597 15 0 14.384 0 13.885v-2.788c0-.615.597-1.115 1.333-1.115m5.334-2.23h2c.736 0 1.333.616 1.333 1.115v5.018C10 14.5 9.403 15 8.667 15h-2c-.737 0-1.334-.616-1.334-1.115V8.867c0-.616.597-1.115 1.334-1.115"/><path fill="#506BD1" d="M12 15h2.666c.354 0 .693-.117.943-.327.25-.209.39-.492.39-.788V6.08h1.334a.75.75 0 00.449-.146.53.53 0 00.215-.36.5.5 0 00-.13-.387l-4-4.46a.75.75 0 00-.534-.21.75.75 0 00-.533.21l-4 4.46a.5.5 0 00-.13.388.53.53 0 00.214.36.75.75 0 00.45.145h1.332v7.805c0 .296.141.58.391.788.25.21.59.327.943.327"/></svg>