<svg xmlns="http://www.w3.org/2000/svg" width="13" height="16" fill="none"><path fill="#506BD1" d="M4.423 16h4.154A4.43 4.43 0 0 0 13 11.577V4.621A4.43 4.43 0 0 0 8.577.2H4.423A4.43 4.43 0 0 0 0 4.62v6.956A4.43 4.43 0 0 0 4.423 16M1.13 4.62a3.295 3.295 0 0 1 3.292-3.29h4.154a3.295 3.295 0 0 1 3.292 3.29v6.957a3.295 3.295 0 0 1-3.292 3.291H4.423a3.295 3.295 0 0 1-3.292-3.291V4.62Z"/><path fill="#506BD1" d="M3.848 4.157h5.806a.565.565 0 1 0 0-1.131H3.848a.565.565 0 1 0 0 1.131m0 3.019h5.806a.565.565 0 1 0 0-1.132H3.848a.565.565 0 1 0 0 1.132m0 3.018h5.806a.565.565 0 1 0 0-1.131H3.848a.565.565 0 1 0 0 1.13Zm0 3.018h3.873a.565.565 0 1 0 0-1.13H3.848a.565.565 0 1 0 0 1.13"/></svg>