<svg width="240" height="978" viewBox="0 0 240 978" fill="none" xmlns="http://www.w3.org/2000/svg">
<mask id="mask0_104_204" style="mask-type:alpha" maskUnits="userSpaceOnUse" x="150" y="0" width="731" height="640">
<rect x="752.502" width="495.423" height="622.921" transform="rotate(75 752.502 0)" fill="url(#paint0_linear_104_204)"/>
</mask>
<g mask="url(#mask0_104_204)">
<path d="M476.972 517.586C379.482 543.709 279.275 485.854 253.153 388.364C227.03 290.874 284.885 190.667 382.375 164.545C479.864 138.422 448.707 231.476 474.83 328.966C500.952 426.456 574.462 491.464 476.972 517.586Z" fill="#00FF38"/>
</g>
<mask id="mask1_104_204" style="mask-type:alpha" maskUnits="userSpaceOnUse" x="70" y="105" width="793" height="790">
<rect x="862.54" y="537.559" width="495.423" height="622.921" transform="rotate(133.911 862.54 537.559)" fill="url(#paint1_linear_104_204)"/>
</mask>
<g mask="url(#mask1_104_204)">
<path d="M311.019 568.865C238.309 498.867 236.111 383.178 306.11 310.468C376.108 237.757 491.797 235.559 564.507 305.558C637.218 375.557 541.441 396.924 471.442 469.635C401.443 542.345 383.73 638.864 311.019 568.865Z" fill="#00FF38"/>
<path d="M308.395 566.339C252.11 512.154 263.228 409.285 333.227 336.575C403.226 263.864 505.598 248.847 561.883 303.032C618.167 357.217 607.049 460.086 537.05 532.796C467.051 605.507 364.679 620.524 308.395 566.339Z" fill="#00FF38"/>
<ellipse cx="440.389" cy="439.738" rx="182.748" ry="141.463" transform="rotate(133.911 440.389 439.738)" fill="#00FF38"/>
<ellipse cx="481.821" cy="453.633" rx="182.748" ry="142.07" transform="rotate(133.911 481.821 453.633)" fill="#00FF38"/>
<ellipse cx="532.123" cy="495.32" rx="182.748" ry="141.463" transform="rotate(133.911 532.123 495.32)" fill="#00FF38"/>
</g>
<defs>
<linearGradient id="paint0_linear_104_204" x1="1116.18" y1="496.03" x2="1116.18" y2="3.85903e-06" gradientUnits="userSpaceOnUse">
<stop stop-color="white"/>
<stop offset="1" stop-color="white" stop-opacity="0"/>
</linearGradient>
<linearGradient id="paint1_linear_104_204" x1="1226.21" y1="1033.59" x2="1226.21" y2="537.559" gradientUnits="userSpaceOnUse">
<stop stop-color="white"/>
<stop offset="1" stop-color="white" stop-opacity="0"/>
</linearGradient>
</defs>
</svg>
