<svg xmlns="http://www.w3.org/2000/svg" width="24" height="24" fill="none"><path fill="#4E5361" d="m12.445 10.263 1.57 1.867a.424.424 0 0 0 .673.003.64.64 0 0 0-.002-.8L12.3 8.499a.424.424 0 0 0-.672-.003L9.26 11.312a.64.64 0 0 0 .003.8.424.424 0 0 0 .672.002l1.56-1.855.028 9.94c0 .312.214.566.476.567.263 0 .475-.251.474-.563z"/><path fill="#4E5361" fill-rule="evenodd" d="M3 12a9 9 0 0 0 5.885 8.446v-.742A8.31 8.31 0 0 1 12 3.692a8.308 8.308 0 0 1 3.115 16.012v.742A9 9 0 1 0 3 12" clip-rule="evenodd"/></svg>