<svg xmlns="http://www.w3.org/2000/svg" width="24" height="24" fill="none"><g clip-path="url(#a)"><mask id="b" width="24" height="24" x="0" y="0" maskUnits="userSpaceOnUse" style="mask-type:luminance"><path fill="#fff" d="M0 0h24v24H0z"/></mask><g mask="url(#b)"><mask id="c" width="11" height="11" x="0" y="0" maskUnits="userSpaceOnUse" style="mask-type:luminance"><path fill="#fff" d="M0 0h10.928v10.928H0z"/></mask><g mask="url(#c)"><path fill="#4E5361" d="M7.664 6.08a3.424 3.424 0 0 0 .232-5.071 3.442 3.442 0 0 0-5.872 2.43c0 1.06.482 2.008 1.24 2.639A3.44 3.44 0 0 0 0 9.509v1.013c0 .222.18.404.404.404h10.118a.406.406 0 0 0 .406-.404V9.509a3.443 3.443 0 0 0-3.264-3.43M2.83 3.437a2.634 2.634 0 0 1 4.49-1.857c.494.491.772 1.162.772 1.857A2.634 2.634 0 0 1 3.602 5.3a2.64 2.64 0 0 1-.772-1.862m7.286 6.68H.809V9.51A2.634 2.634 0 0 1 3.44 6.88h4.047a2.634 2.634 0 0 1 2.63 2.63z"/></g><mask id="d" width="12" height="12" x="13" y="13" maskUnits="userSpaceOnUse" style="mask-type:luminance"><path fill="#fff" d="M13.114 13.114h10.928v10.928H13.114z"/></mask><g mask="url(#d)"><path fill="#4E5361" d="M20.778 19.193a3.425 3.425 0 0 0 .231-5.07 3.442 3.442 0 0 0-5.872 2.43c0 1.06.483 2.01 1.242 2.64a3.44 3.44 0 0 0-3.265 3.431v1.013c0 .222.182.404.404.404h10.118a.406.406 0 0 0 .406-.404v-1.013a3.44 3.44 0 0 0-3.264-3.431m-4.832-2.64a2.634 2.634 0 0 1 4.491-1.859c.492.492.77 1.162.77 1.858a2.634 2.634 0 0 1-4.489 1.861 2.64 2.64 0 0 1-.772-1.86m7.285 6.678h-9.307v-.607a2.634 2.634 0 0 1 2.628-2.63H20.6a2.634 2.634 0 0 1 2.63 2.63z"/></g><path fill="#4E5361" d="M14.671 1.69a.4.4 0 0 1 .315.135.436.436 0 0 1 0 .63L12.74 4.701a.437.437 0 0 1-.629 0 .44.44 0 0 1 0-.628l2.246-2.248a.4.4 0 0 1 .315-.135"/><path fill="#4E5361" d="M12.424 3.938a.4.4 0 0 1 .315.135l2.247 2.244a.437.437 0 0 1 0 .63.437.437 0 0 1-.63 0L12.11 4.699a.44.44 0 0 1 0-.628.4.4 0 0 1 .314-.133"/><path fill="#4E5361" d="M12.424 3.938h7.188c.272 0 .45.178.45.448s-.178.45-.45.45h-7.188c-.27 0-.448-.18-.448-.45s.178-.448.447-.448m7.513.918c.25 0 .45.2.45.45v5.84a.45.45 0 0 1-.898 0v-5.84c0-.25.198-.45.448-.45"/><path fill="#4E5361" d="m19.485 3.934.003 1.372h.898l.004-1.166s-.013-.07-.03-.106c-.015-.036-.028-.082-.028-.082s-.075 0-.1-.009-.082-.007-.082-.007zM9.112 22.636A.4.4 0 0 1 8.8 22.5a.437.437 0 0 1 0-.628l2.246-2.248a.435.435 0 0 1 .628 0 .44.44 0 0 1 0 .63l-2.246 2.246a.4.4 0 0 1-.315.135"/><path fill="#4E5361" d="M11.36 20.39a.4.4 0 0 1-.315-.135l-2.246-2.247a.437.437 0 0 1 0-.629.44.44 0 0 1 .628 0l2.248 2.246a.436.436 0 0 1 0 .63.4.4 0 0 1-.315.135"/><path fill="#4E5361" d="M11.36 20.39H4.17c-.269 0-.449-.18-.449-.45s.18-.45.45-.45h7.189c.27 0 .45.18.45.45s-.182.45-.45.45m-7.513-.92a.45.45 0 0 1-.45-.448v-5.84a.45.45 0 1 1 .898 0v5.84c0 .248-.2.448-.448.448"/><path fill="#4E5361" d="M4.297 20.392v-1.37h-.9l-.004 1.166s.013.067.03.106l.028.081s.075 0 .1.01c.026.009.083.007.083.007z"/></g></g><defs><clipPath id="a"><path fill="#fff" d="M0 0h24v24H0z"/></clipPath></defs></svg>