<svg xmlns="http://www.w3.org/2000/svg" width="24" height="24" fill="none"><path fill="#4E5361" d="M11.129 4.161h.58v.58h-.58zm1.161 0h2.323v.58H12.29zm2.904 0h.58v.58h-.58z"/><path fill="#4E5361" d="m12 7.684 2.137-1.78h2.799V3H9.968v2.903H12zm-1.452-2.361V3.58h5.807v1.742h-2.428l-1.346 1.122V5.323z"/><path fill="#4E5361" d="m17.779 20.42-.235-2.35a2.034 2.034 0 0 0 1.714-2.006V12.29h-1.161v-.4c0-.396-.217-.75-.566-.932.347-.318.566-.774.566-1.28v-.581c0-.96-.782-1.742-1.742-1.742s-1.742.781-1.742 1.742v.58c0 .752.48 1.392 1.148 1.636l-1.559 1.558h-1.628a1.16 1.16 0 0 0-.835-1.04l-1.19-.34v-.519c.355-.319.58-.78.58-1.295v-.58c0-.96-.781-1.742-1.742-1.742-.96 0-1.742.781-1.742 1.742v.58c0 .515.225.976.58 1.295v.52l-1.19.339c-.495.141-.841.6-.841 1.116v1.085H5.032v1.742h.58v4.645H3V21h18v-.58zm-2.585-4.646v-1.331l2.057-2.057a.9.9 0 0 0 .257-.557c.002.02.008.04.008.06v3.595c0 .48-.39.87-.87.87h-2.323v-.58zm-.871 2.323h1.479l.232 2.322h-1.711zm2.062 0h.578l.232 2.322h-.578zm1.712-2.613V12.87h.58v3.193c0 .8-.65 1.452-1.451 1.452h-2.903v-.58h2.322c.8 0 1.452-.652 1.452-1.452m-2.904-5.807v-.58a1.162 1.162 0 0 1 2.323 0v.58a1.162 1.162 0 0 1-2.322 0m-.75 3.775 1.937-1.937a.326.326 0 0 1 .46.46l-2.057 2.057H11.71a.29.29 0 0 1 0-.58zM8.226 9.097a1.162 1.162 0 0 1 2.322 0v.58a1.162 1.162 0 0 1-2.322 0zm1.161 2.322c.204 0 .399-.037.58-.101v.312c-.071.11-.271.37-.58.37s-.509-.26-.58-.37v-.312c.181.064.376.101.58.101m-2.613 1.528c0-.258.174-.487.421-.558l1.196-.342c.169.22.496.534.996.534s.827-.314.996-.534l1.196.342a.58.58 0 0 1 .409.482h-.278c-.48 0-.871.39-.871.87q.002.154.053.291H6.774zm-1.161 1.666h9v.58h-9zm.58 2.323h.872v-.581h-.871v-.58h7.548v.58H7.645v.58h6.097v3.484h-.692l-.58-1.16H7.466l-.581 1.16h-.691zm6.208 3.483H7.534l.29-.58h4.287z"/></svg>