<svg xmlns="http://www.w3.org/2000/svg" width="24" height="24" fill="none"><mask id="a" fill="#fff"><path d="M10.484 2.355h.677v.677h-.677zm1.355 0h2.71v.677h-2.71zm3.387 0h.677v.677h-.677z"/><path d="m11.5 6.465 2.493-2.078h3.265V1H9.13v3.387h2.37zM9.806 3.71V1.677h6.775V3.71h-2.833l-1.57 1.309v-1.31z"/><path d="m18.242 21.323-.274-2.742c1.131-.18 2-1.158 2-2.34V11.84h-1.355v-.468c0-.46-.253-.874-.66-1.086.405-.372.66-.903.66-1.495v-.677c0-1.12-.912-2.032-2.032-2.032s-2.033.911-2.033 2.032v.677c0 .877.56 1.624 1.34 1.908l-1.819 1.818H12.17a1.36 1.36 0 0 0-.975-1.214l-1.389-.396V10.3c.415-.372.678-.91.678-1.51v-.678c0-1.12-.912-2.032-2.032-2.032s-2.033.911-2.033 2.032v.677c0 .6.263 1.138.678 1.511v.605l-1.389.396a1.36 1.36 0 0 0-.982 1.303v1.266H3.37v2.032h.677v5.42H1V22h21v-.677zm-3.016-5.42V14.35l2.4-2.4a1.06 1.06 0 0 0 .3-.65c.003.024.01.046.01.07v4.195c0 .56-.456 1.016-1.017 1.016h-2.71v-.678zm-1.016 2.71h1.725l.271 2.71H14.21zm2.406 0h.674l.271 2.71h-.674zm1.997-3.048v-3.049h.677v3.726c0 .934-.76 1.694-1.693 1.694H14.21v-.678h2.71c.933 0 1.693-.76 1.693-1.693M15.226 8.79v-.677a1.356 1.356 0 0 1 2.71 0v.677c0 .748-.608 1.355-1.355 1.355a1.356 1.356 0 0 1-1.355-1.355m-.876 4.404 2.26-2.26a.38.38 0 0 1 .537.537l-2.4 2.4H11.16a.339.339 0 0 1 0-.678zM7.097 8.113c0-.747.607-1.355 1.355-1.355.747 0 1.354.608 1.354 1.355v.677c0 .748-.607 1.355-1.354 1.355A1.356 1.356 0 0 1 7.097 8.79zm1.355 2.71c.237 0 .465-.044.677-.119v.364c-.084.13-.317.432-.677.432s-.594-.303-.678-.432v-.364c.213.075.44.119.678.119m-3.049 1.782a.68.68 0 0 1 .491-.651l1.396-.399c.196.256.579.622 1.162.622s.965-.366 1.161-.622l1.396.399c.26.074.44.3.476.562h-.324c-.56 0-1.016.456-1.016 1.016 0 .12.024.232.063.339H5.403zm-1.355 1.943h10.5v.678h-10.5zm.678 2.71h1.016v-.677H4.726v-.678h8.806v.678H6.42v.677h7.113v4.065h-.806l-.678-1.355H6.21l-.677 1.355h-.807zm7.242 4.065H6.29l.339-.678h5z"/></mask><path stroke="#4E5361" stroke-width="2" d="M10.484 2.355h.677v.677h-.677zm1.355 0h2.71v.677h-2.71zm3.387 0h.677v.677h-.677z" mask="url(#a)"/><path stroke="#4E5361" stroke-width="2" d="m11.5 6.465 2.493-2.078h3.265V1H9.13v3.387h2.37zM9.806 3.71V1.677h6.775V3.71h-2.833l-1.57 1.309v-1.31z" mask="url(#a)"/><path stroke="#4E5361" stroke-width="2" d="m18.242 21.323-.274-2.742c1.131-.18 2-1.158 2-2.34V11.84h-1.355v-.468c0-.46-.253-.874-.66-1.086.405-.372.66-.903.66-1.495v-.677c0-1.12-.912-2.032-2.032-2.032s-2.033.911-2.033 2.032v.677c0 .877.56 1.624 1.34 1.908l-1.819 1.818H12.17a1.36 1.36 0 0 0-.975-1.214l-1.389-.396V10.3c.415-.372.678-.91.678-1.51v-.678c0-1.12-.912-2.032-2.032-2.032s-2.033.911-2.033 2.032v.677c0 .6.263 1.138.678 1.511v.605l-1.389.396a1.36 1.36 0 0 0-.982 1.303v1.266H3.37v2.032h.677v5.42H1V22h21v-.677zm-3.016-5.42V14.35l2.4-2.4a1.06 1.06 0 0 0 .3-.65c.003.024.01.046.01.07v4.195c0 .56-.456 1.016-1.017 1.016h-2.71v-.678zm-1.016 2.71h1.725l.271 2.71H14.21zm2.406 0h.674l.271 2.71h-.674zm1.997-3.048v-3.049h.677v3.726c0 .934-.76 1.694-1.693 1.694H14.21v-.678h2.71c.933 0 1.693-.76 1.693-1.693zM15.226 8.79v-.677a1.356 1.356 0 0 1 2.71 0v.677c0 .748-.608 1.355-1.355 1.355a1.356 1.356 0 0 1-1.355-1.355zm-.876 4.404 2.26-2.26a.38.38 0 0 1 .537.537l-2.4 2.4H11.16a.339.339 0 0 1 0-.678zM7.097 8.113c0-.747.607-1.355 1.355-1.355.747 0 1.354.608 1.354 1.355v.677c0 .748-.607 1.355-1.354 1.355A1.356 1.356 0 0 1 7.097 8.79zm1.355 2.71c.237 0 .465-.044.677-.119v.364c-.084.13-.317.432-.677.432s-.594-.303-.678-.432v-.364c.213.075.44.119.678.119zm-3.049 1.782a.68.68 0 0 1 .491-.651l1.396-.399c.196.256.579.622 1.162.622s.965-.366 1.161-.622l1.396.399c.26.074.44.3.476.562h-.324c-.56 0-1.016.456-1.016 1.016 0 .12.024.232.063.339H5.403zm-1.355 1.943h10.5v.678h-10.5zm.678 2.71h1.016v-.677H4.726v-.678h8.806v.678H6.42v.677h7.113v4.065h-.806l-.678-1.355H6.21l-.677 1.355h-.807zm7.242 4.065H6.29l.339-.678h5z" mask="url(#a)"/></svg>