<svg xmlns="http://www.w3.org/2000/svg" width="24" height="24" fill="none"><g fill="#4E5361" clip-path="url(#a)"><path d="m4.14 7.88-.584-.476L.608 11.02l.584.476zm19.253 3.141L20.409 7.36l-.584.476 2.984 3.662z"/><path d="M23.395 23.96H.605V10.983h.753v12.222h21.284V10.984h.753z"/><path d="m7.907 18.032-.506-.558L.82 23.442l.506.558zm15.274 5.41-6.583-5.967-.506.557L22.675 24z"/><path d="M16.463 17.936H7.537l-3.954-4.042V0h16.834v13.894zm-8.609-.753h8.292l3.519-3.596V.753H4.336v12.834z"/><path d="M12.103 13.502c-2.45 0-4.442-1.978-4.442-4.409s1.993-4.408 4.442-4.408a4.44 4.44 0 0 1 3.436 1.614l-.581.48a3.69 3.69 0 0 0-2.855-1.341c-2.034 0-3.69 1.64-3.69 3.655 0 2.016 1.656 3.656 3.69 3.656.811 0 1.58-.255 2.224-.74l.452.603c-.775.582-1.7.89-2.676.89"/><path d="M11.369 11.26q-.264 0-.548-.082c-.57-.163-1.001-.637-1.153-1.267-.204-.848.111-1.788.824-2.452.623-.58 1.473-.703 2.076-.703.506 0 .884.085.9.088l.396.09-.119.388c-.03.098-.736 2.395-.862 2.754-.26.74-.826 1.183-1.514 1.183m1.2-3.75c-.47 0-1.12.086-1.564.5-.614.573-.715 1.267-.605 1.725.089.368.317.63.627.719q.184.052.341.052c.467 0 .695-.37.804-.68.09-.254.507-1.603.723-2.303a4 4 0 0 0-.327-.013"/><path d="M13.816 11.22c-.383 0-.738-.131-1.02-.386-.583-.526-.182-2.306.11-3.32l.723.209c-.322 1.124-.475 2.344-.321 2.56.28.25.636.202.883.115.569-.198 1.22-.849 1.366-1.712.105-.623-.018-1.564-1.204-2.502l.467-.59c1.552 1.228 1.593 2.543 1.48 3.218-.175 1.032-.94 1.977-1.861 2.298q-.319.11-.623.11"/><path d="M16.205 17.936h-8.41L.889 11.28l.523-.542 6.687 6.444h7.803l6.687-6.444.522.542z"/></g><defs><clipPath id="a"><path fill="#fff" d="M0 0h24v24H0z"/></clipPath></defs></svg>