<svg xmlns="http://www.w3.org/2000/svg" width="24" height="24" fill="none"><path fill="#4E5361" d="m5.257 8.26-.538-.438-2.717 3.334.538.438zm17.741 2.896-2.75-3.375-.538.439 2.75 3.374z"/><path fill="#4E5361" d="M23 23.078H2V11.122h.694v11.262h19.612V11.122H23z"/><path fill="#4E5361" d="m8.728 17.616-.466-.514-6.065 5.5.466.513zm14.075 4.985-6.066-5.499-.466.514 6.066 5.5z"/><path fill="#4E5361" d="M16.612 17.527H8.388l-3.644-3.724V1h15.512v12.803zm-7.932-.693h7.64l3.243-3.314V1.694H5.438V13.52z"/><path fill="#4E5361" d="M12.595 13.442c-2.257 0-4.093-1.822-4.093-4.063s1.836-4.062 4.093-4.062a4.09 4.09 0 0 1 3.166 1.488l-.535.442a3.4 3.4 0 0 0-2.632-1.236c-1.874 0-3.399 1.51-3.399 3.368s1.525 3.37 3.4 3.37c.747 0 1.456-.236 2.05-.682l.416.555a4.08 4.08 0 0 1-2.466.82"/><path fill="#4E5361" d="M11.918 11.375q-.241 0-.505-.075c-.525-.15-.922-.586-1.062-1.167-.188-.781.103-1.647.759-2.26.575-.535 1.358-.647 1.914-.647.466 0 .814.077.829.08l.365.083-.11.358c-.028.09-.679 2.207-.794 2.537-.24.683-.762 1.091-1.396 1.091m1.106-3.455c-.432 0-1.032.08-1.441.461-.566.528-.66 1.167-.558 1.59.082.339.293.58.579.662q.169.048.314.048c.43 0 .64-.34.74-.627.083-.234.468-1.477.667-2.122a4 4 0 0 0-.301-.012"/><path fill="#4E5361" d="M14.174 11.339c-.354 0-.68-.121-.94-.356-.538-.485-.168-2.124.1-3.058l.667.191c-.297 1.036-.438 2.16-.296 2.36.258.23.586.185.814.106.524-.183 1.124-.783 1.259-1.578.097-.574-.017-1.441-1.11-2.305l.43-.545c1.431 1.132 1.469 2.344 1.364 2.966-.16.951-.866 1.822-1.714 2.117a1.8 1.8 0 0 1-.574.101"/><path fill="#4E5361" d="M16.375 17.527h-7.75l-6.363-6.132.481-.5 6.162 5.939h7.19l6.162-5.938.482.5z"/></svg>