<svg xmlns="http://www.w3.org/2000/svg" width="24" height="24" fill="none"><path fill="#61C7BB" d="M3.224 5.013A11.2 11.2 0 0 0 1.23 9.626a11.1 11.1 0 0 0 .233 4.996A11.3 11.3 0 0 0 3.88 19.04l1.133-.941a9.86 9.86 0 0 1-2.109-3.858A9.7 9.7 0 0 1 2.7 9.879c.265-1.451.786-2.85 1.666-4.052z"/><path fill="#4E5361" fill-rule="evenodd" d="m6.969 5.811-.697.697V17.66l.697.697h15.334L23 17.66V6.508l-.697-.697zm.697 2.273v8.88h13.94v-8.88l-6.97 6.336zM20.5 7.205H8.772l5.864 5.331z" clip-rule="evenodd"/></svg>