<svg xmlns="http://www.w3.org/2000/svg" width="24" height="24" fill="none"><g clip-path="url(#a)"><path fill="#4E5361" d="M1 12c0 1.382.252 2.728.75 4l-.932.363A11.9 11.9 0 0 1 0 12C0 5.383 5.383 0 12 0a11.88 11.88 0 0 1 8 3.072V0h1v3.5c0 .827-.673 1.5-1.5 1.5H16V4h3.5c.009 0 .016-.005.025-.005A10.9 10.9 0 0 0 12 1C5.935 1 1 5.935 1 12m22.182-4.363L22.25 8c.498 1.272.75 2.618.75 4 0 6.065-4.935 11-11 11a10.9 10.9 0 0 1-7.525-2.995c.009 0 .016-.005.025-.005H8v-1H4.5c-.827 0-1.5.673-1.5 1.5V24h1v-3.072A11.88 11.88 0 0 0 12 24c6.617 0 12-5.383 12-12 0-1.507-.275-2.975-.818-4.363m-3.453 1.811-1.92 1.06a5.96 5.96 0 0 1 0 2.986l1.919 1.06-1.448 2.627-1.919-1.059a6 6 0 0 1-2.86 1.685v2.194h-3v-2.194a6 6 0 0 1-2.86-1.685l-1.919 1.059-1.448-2.627 1.919-1.06a5.95 5.95 0 0 1 0-2.986l-1.92-1.06 1.449-2.627L7.641 7.88a6 6 0 0 1 2.86-1.685V4.001h3v2.194a6 6 0 0 1 2.86 1.685l1.919-1.059zm-1.359-.393-.482-.875-1.758.97a5.27 5.27 0 0 0-3.629-2.138V5h-1v2.012A5.27 5.27 0 0 0 7.872 9.15l-1.758-.97-.482.875 1.759.971c-.228.632-.4 1.311-.39 1.975-.01.664.162 1.342.39 1.973l-1.76.973.483.875 1.758-.97a5.27 5.27 0 0 0 3.629 2.138v2.012h1V16.99a5.27 5.27 0 0 0 3.629-2.138l1.758.97.483-.875-1.76-.973c.228-.631.4-1.308.39-1.973.01-.663-.161-1.343-.39-1.975zM11.501 15h1V9h-1zm2 0h1v-4h-1zm-4 0h1v-3h-1z"/></g><defs><clipPath id="a"><path fill="#fff" d="M0 0h24v24H0z"/></clipPath></defs></svg>