<svg xmlns="http://www.w3.org/2000/svg" width="24" height="24" fill="none"><g clip-path="url(#a)"><path fill="#4E5361" d="m12.51 6.9.98.2-2 10-.98-.2zM9.33 9.56l-.71-.71-2.19 2.19c-.58.58-.58 1.52 0 2.1l2.16 2.16.71-.71-2.16-2.16a.49.49 0 0 1 0-.69l2.19-2.19zm6.07-.75-.71.71 2.18 2.18c.19.19.19.5 0 .69l-2.18 2.18.71.71 2.18-2.18c.58-.58.58-1.52 0-2.1L15.4 8.82zm5.39 5.09 3 1.85-3.15 5.11-3-1.85c-.8.65-1.68 1.14-2.64 1.48V24H9v-3.51c-.95-.34-1.84-.83-2.64-1.48l-3 1.85-3.15-5.11 3-1.85C3.07 13.26 3 12.62 3 12s.07-1.26.21-1.9l-3-1.85 3.15-5.11 3 1.85c.8-.65 1.68-1.14 2.64-1.48V0h6v3.51c.95.34 1.84.83 2.64 1.48l3-1.85 3.15 5.11-3 1.85c.14.64.21 1.28.21 1.9s-.07 1.26-.21 1.9m-1.15.47.09-.36Q20 12.99 20 12t-.27-2.01l-.09-.36 2.77-1.71-2.1-3.4-2.77 1.71-.28-.24c-.86-.75-1.84-1.3-2.91-1.63L14 4.25V1h-4v3.24l-.35.11c-1.07.33-2.05.88-2.91 1.63l-.28.24-2.77-1.71-2.1 3.41 2.77 1.71-.09.36Q4 11.01 4 12t.27 2.01l.09.36-2.77 1.71 2.1 3.4 2.77-1.71.28.24c.86.75 1.84 1.3 2.91 1.63l.35.11v3.24h4v-3.24l.35-.11c1.07-.33 2.05-.88 2.91-1.63l.28-.24 2.77 1.71 2.1-3.4z"/></g><defs><clipPath id="a"><path fill="#fff" d="M0 0h24v24H0z"/></clipPath></defs></svg>