<svg xmlns="http://www.w3.org/2000/svg" width="24" height="24" fill="none"><g clip-path="url(#a)"><path fill="#4E5361" d="M22 19V6h-3v1h2v12h-5.707l-1 1H9.707l-1-1H3V7h2V6H2v13H0v2.5C0 22.879 1.122 24 2.5 24h19c1.378 0 2.5-1.121 2.5-2.5V19zm1 2.5c0 .827-.673 1.5-1.5 1.5h-19c-.827 0-1.5-.673-1.5-1.5V20h7.293l1 1h5.414l1-1H23zM12 9c-1.103 0-2-.897-2-2s.897-2 2-2 2 .897 2 2-.897 2-2 2m0-3a1.001 1.001 0 000 2 1.001 1.001 0 000-2m1.5 8h-3v-2.238a5 5 0 01-1.853-1.067l-1.936 1.13-1.513-2.591L7.14 8.101A4.6 4.6 0 017 7c0-.353.046-.715.14-1.101L5.198 4.766l1.513-2.591 1.936 1.13A5 5 0 0110.5 2.238V0h3v2.238a5 5 0 011.853 1.067l1.936-1.13 1.513 2.591-1.942 1.133c.094.386.14.748.14 1.101s-.046.715-.14 1.101l1.942 1.133-1.513 2.591-1.936-1.13a5 5 0 01-1.853 1.067zm-2-1h1v-2.02l.389-.088a4 4 0 002.021-1.165l.272-.291 1.747 1.021.504-.864-1.755-1.023.119-.381c.138-.44.202-.818.202-1.188s-.064-.748-.202-1.188l-.119-.381 1.755-1.023-.504-.864-1.747 1.021-.272-.291a4 4 0 00-2.021-1.165l-.389-.088V1h-1v2.02l-.389.088A4 4 0 009.09 4.273l-.272.291-1.747-1.021-.504.864L8.322 5.43l-.119.381c-.138.44-.202.818-.202 1.188s.064.748.202 1.188l.119.381-1.755 1.023.504.864 1.747-1.021.272.291a4 4 0 002.021 1.165l.389.088z"/></g><defs><clipPath id="a"><path fill="#fff" d="M0 0h24v24H0z"/></clipPath></defs></svg>