<svg xmlns="http://www.w3.org/2000/svg" width="24" height="24" fill="none"><g clip-path="url(#a)"><path fill="#4E5361" d="M10.73 10.3l1.84 1.06 1-1.73-1.84-1.06c.17-.5.28-1.02.28-1.57s-.11-1.07-.28-1.57l1.84-1.06-1-1.73-1.84 1.06C10.02 2.9 9.08 2.32 8 2.1V0H6v2.1c-1.08.22-2.02.8-2.73 1.6L1.43 2.64l-1 1.73 1.84 1.06c-.17.5-.28 1.02-.28 1.57s.11 1.07.28 1.57L.43 9.63l1 1.73 1.84-1.06c.71.8 1.65 1.38 2.73 1.6V14h2v-2.1c1.08-.22 2.02-.8 2.73-1.6M4 7c0-1.65 1.35-3 3-3s3 1.35 3 3-1.35 3-3 3-3-1.35-3-3m18 10c0-.55-.11-1.07-.28-1.57l1.84-1.06-1-1.73-1.84 1.06c-.71-.8-1.65-1.38-2.73-1.6V10h-2v2.1c-1.08.22-2.02.8-2.73 1.6l-1.84-1.06-1 1.73 1.84 1.06c-.17.5-.28 1.02-.28 1.57s.11 1.07.28 1.57l-1.84 1.06 1 1.73 1.84-1.06c.71.8 1.65 1.38 2.73 1.6V24h2v-2.1c1.08-.22 2.02-.8 2.73-1.6l1.84 1.06 1-1.73-1.84-1.06c.17-.5.28-1.02.28-1.57m-5 3c-1.65 0-3-1.35-3-3s1.35-3 3-3 3 1.35 3 3-1.35 3-3 3"/></g><defs><clipPath id="a"><path fill="#fff" d="M0 0h24v24H0z"/></clipPath></defs></svg>