<svg xmlns="http://www.w3.org/2000/svg" width="24" height="24" fill="none"><path fill="#4E5361" fill-rule="evenodd" d="M21.488 14.404l.011-.199a9.9 9.9 0 00-.778-4.322l-4.684-.01.075 1.372 3.53.127c.172.348.323 1.052.433 1.617l-7.61.002c-.037-2.466.03-5.127-.007-7.592 2.112.182 3.962 1.148 5.336 2.721l1.96.013c-1.648-2.379-4.318-3.983-7.391-4.123-5.282-.241-9.756 3.933-9.992 9.322q-.023.535.01 1.06h1.256c.017-1.2.159-2.251.403-3.172l7.02-.013.002 3.19zM4.552 9.774c1.327-2.925 3.913-4.119 6.51-4.439l.001 4.426z" clip-rule="evenodd"/><path fill="#4E5361" d="M2 19.953l.9-2.044h.682l.9 2.044h-.718l-.665-1.717h.27l-.663 1.717zm.535-.356l.176-.496h.947l.176.496zm2.136.356V17.91h1.567v.535H5.203l.15-.15v1.66zm1.797 0V17.91h.682v1.063l.709-1.063h.652v2.044H7.83v-1.06l-.705 1.06zm2.876 0v-1.658l.15.149h-.752v-.535h1.887v.535h-.753l.15-.15v1.66zm1.346-.595v-.497h.882v.497zm1.195.595V17.91h1.99v2.044h-.681v-1.655l.15.146h-.927l.15-.146v1.655zm2.507.038a1.2 1.2 0 01-.294-.038l.036-.552a.4.4 0 00.076.01.19.19 0 00.17-.094.7.7 0 00.077-.251q.02-.16.026-.36l.027-.797h1.737v2.044h-.682v-1.655l.15.146h-.75l.136-.155-.012.391q-.01.296-.041.537-.03.24-.103.415a.6.6 0 01-.209.266.6.6 0 01-.344.093m2.218-.038V17.91h.683v.724h.532v.567h-.532v.753zm1.944.047a1.3 1.3 0 01-.456-.079 1.1 1.1 0 01-.361-.222 1 1 0 01-.238-.341 1.1 1.1 0 01-.083-.427q0-.233.082-.426.086-.195.239-.339.155-.146.361-.225.21-.078.456-.078t.453.078q.209.08.361.225.153.143.235.339.085.192.085.426a1.06 1.06 0 01-.32.768q-.153.144-.361.222a1.3 1.3 0 01-.453.079m0-.558q.09 0 .167-.035a.4.4 0 00.139-.1.5.5 0 00.094-.16.6.6 0 00.035-.216.6.6 0 00-.035-.213.4.4 0 00-.095-.16.4.4 0 00-.305-.138.42.42 0 00-.406.298.7.7 0 00-.032.213q0 .12.032.216a.5.5 0 00.094.16.42.42 0 00.312.134m2.422.559q-.248 0-.459-.076a1.1 1.1 0 01-.364-.222 1 1 0 01-.239-.339 1.1 1.1 0 01-.085-.432q0-.237.085-.432a1 1 0 01.603-.558q.211-.078.459-.078.302 0 .535.105.235.104.388.303l-.438.389a.7.7 0 00-.203-.176.53.53 0 00-.444-.03.4.4 0 00-.153.103.5.5 0 00-.097.164.6.6 0 00-.035.21q0 .118.035.213a.43.43 0 00.25.263.5.5 0 00.197.035q.138 0 .247-.061a.7.7 0 00.203-.178l.438.388a1 1 0 01-.388.304q-.233.105-.535.105"/></svg>