<svg xmlns="http://www.w3.org/2000/svg" width="24" height="24" fill="none"><path fill="#4E5361" d="M12.51 20.747A.64.64 0 0 1 12 21a.64.64 0 0 1-.51-.253l-5.162-6.913A6.67 6.67 0 0 1 5 9.832C5 6.065 8.14 3 12 3s7 3.065 7 6.832a6.67 6.67 0 0 1-1.326 4zM12 4.147c-3.212 0-5.826 2.55-5.826 5.685 0 1.203.382 2.354 1.105 3.328L12 19.485l4.724-6.326a5.55 5.55 0 0 0 1.102-3.327c0-3.135-2.614-5.686-5.826-5.686m0 8.78c-1.748 0-3.171-1.389-3.171-3.095S10.251 6.737 12 6.737s3.171 1.388 3.171 3.095c0 1.706-1.422 3.094-3.171 3.094m0-5.044c-1.101 0-1.997.874-1.997 1.949 0 1.074.896 1.948 1.997 1.948s1.997-.874 1.997-1.948c0-1.075-.896-1.95-1.997-1.95"/></svg>