<svg xmlns="http://www.w3.org/2000/svg" width="24" height="24" fill="none"><mask id="a" fill="#fff"><path d="M21.504 1.92H9.634a.457.457 0 0 0-.457.457v15.521a.456.456 0 0 0 .457.457h.749a2.04 2.04 0 0 1-.402 2.228 2 2 0 0 1-1.561.511 1.83 1.83 0 0 1-1.069-.466 2.06 2.06 0 0 1-.191-2.374.48.48 0 0 0 .191-.356v-3.195a.45.45 0 0 0-.356-.439l-1.196-.32c-1.013-.237-1.187-.912-1.187-2.4v-2.74c0-1.442.183-2.182 1.242-2.41l1.141-.247a.447.447 0 0 0 .356-.483V2.377a.457.457 0 0 0-.456-.457H4.512A3.49 3.49 0 0 0 .96 5.317v9.641a3.49 3.49 0 0 0 3.552 3.397h1.634a2.83 2.83 0 0 0 .584 2.93c.442.4.997.652 1.59.722h.3a2.97 2.97 0 0 0 1.982-.776 2.87 2.87 0 0 0 .74-2.876h10.161a.456.456 0 0 0 .457-.457V2.377a.457.457 0 0 0-.457-.457M1.872 14.958V5.317a2.566 2.566 0 0 1 2.639-2.484h1.926v2.465l-.785.174c-1.954.42-1.954 2.228-1.954 3.296v2.739c0 1.132 0 2.849 1.9 3.287l.84.2v2.448H4.511a2.565 2.565 0 0 1-2.639-2.484m19.174 2.484H10.09V2.833h10.957z"/><path d="M12.373 8.311h6.391a.457.457 0 0 0 .457-.456v-2.74a.457.457 0 0 0-.457-.456h-6.391a.457.457 0 0 0-.457.457v2.739a.457.457 0 0 0 .457.456m.457-2.739h5.478v1.826H12.83zm-.457 4.565h.913a.456.456 0 1 0 0-.913h-.913a.457.457 0 0 0 0 .913m3.652-.913h-.913a.456.456 0 1 0 0 .913h.913a.456.456 0 1 0 0-.913m2.739 0h-.913a.456.456 0 1 0 0 .913h.913a.457.457 0 0 0 0-.913m-6.391 3.653h.913a.456.456 0 1 0 0-.914h-.913a.457.457 0 0 0 0 .914m3.652-.913h-.913a.456.456 0 1 0 0 .913h.913a.456.456 0 1 0 0-.914m2.739.001h-.913a.456.456 0 1 0 0 .913h.913a.457.457 0 0 0 0-.914m-6.391 3.653h.913a.456.456 0 1 0 0-.913h-.913a.456.456 0 0 0 0 .913m3.652-.913h-.913a.456.456 0 1 0 0 .913h.913a.456.456 0 1 0 0-.913m2.739 0h-.913a.456.456 0 1 0 0 .913h.913a.457.457 0 0 0 0-.913"/></mask><path stroke="#4E5361" stroke-width="2" d="M21.504 1.92H9.634a.457.457 0 0 0-.457.457v15.521a.456.456 0 0 0 .457.457h.749a2.04 2.04 0 0 1-.402 2.228 2 2 0 0 1-1.561.511 1.83 1.83 0 0 1-1.069-.466 2.06 2.06 0 0 1-.191-2.374.48.48 0 0 0 .191-.356v-3.195a.45.45 0 0 0-.356-.439l-1.196-.32c-1.013-.237-1.187-.912-1.187-2.4v-2.74c0-1.442.183-2.182 1.242-2.41l1.141-.247a.447.447 0 0 0 .356-.483V2.377a.457.457 0 0 0-.456-.457H4.512A3.49 3.49 0 0 0 .96 5.317v9.641a3.49 3.49 0 0 0 3.552 3.397h1.634a2.83 2.83 0 0 0 .584 2.93c.442.4.997.652 1.59.722h.3a2.97 2.97 0 0 0 1.982-.776 2.87 2.87 0 0 0 .74-2.876h10.161a.456.456 0 0 0 .457-.457V2.377a.457.457 0 0 0-.457-.457ZM1.872 14.958V5.317a2.566 2.566 0 0 1 2.639-2.484h1.926v2.465l-.785.174c-1.954.42-1.954 2.228-1.954 3.296v2.739c0 1.132 0 2.849 1.9 3.287l.84.2v2.448H4.511a2.565 2.565 0 0 1-2.639-2.484Zm19.174 2.484H10.09V2.833h10.957z" mask="url(#a)"/><path stroke="#4E5361" stroke-width="2" d="M12.373 8.311h6.391a.457.457 0 0 0 .457-.456v-2.74a.457.457 0 0 0-.457-.456h-6.391a.457.457 0 0 0-.457.457v2.739a.457.457 0 0 0 .457.456Zm.457-2.739h5.478v1.826H12.83zm-.457 4.565h.913a.456.456 0 1 0 0-.913h-.913a.457.457 0 0 0 0 .913Zm3.652-.913h-.913a.456.456 0 1 0 0 .913h.913a.456.456 0 1 0 0-.913Zm2.739 0h-.913a.456.456 0 1 0 0 .913h.913a.457.457 0 0 0 0-.913Zm-6.391 3.653h.913a.456.456 0 1 0 0-.914h-.913a.457.457 0 0 0 0 .914Zm3.652-.913h-.913a.456.456 0 1 0 0 .913h.913a.456.456 0 1 0 0-.914Zm2.739 0h-.913a.456.456 0 1 0 0 .913h.913a.457.457 0 0 0 0-.914Zm-6.391 3.652h.913a.456.456 0 1 0 0-.913h-.913a.456.456 0 0 0 0 .913Zm3.652-.913h-.913a.456.456 0 1 0 0 .913h.913a.456.456 0 1 0 0-.913Zm2.739 0h-.913a.456.456 0 1 0 0 .913h.913a.457.457 0 0 0 0-.913Z" mask="url(#a)"/></svg>