<svg xmlns="http://www.w3.org/2000/svg" width="24" height="24" fill="none"><mask id="a" fill="#fff"><path d="M22.477 1.5h-12.41a.477.477 0 0 0-.476.478v16.227a.477.477 0 0 0 .477.477h.783a2.13 2.13 0 0 1-.42 2.329 2.08 2.08 0 0 1-1.633.535 1.9 1.9 0 0 1-1.116-.487 2.16 2.16 0 0 1-.2-2.482.5.5 0 0 0 .2-.372v-3.341a.47.47 0 0 0-.373-.458l-1.25-.334c-1.06-.249-1.24-.955-1.24-2.51V8.697c0-1.508.19-2.282 1.297-2.52L7.31 5.92a.47.47 0 0 0 .373-.506V1.978a.477.477 0 0 0-.478-.477h-2.49A3.646 3.646 0 0 0 1 5.05v10.08a3.646 3.646 0 0 0 3.713 3.55h1.709a2.96 2.96 0 0 0 .61 3.065 3 3 0 0 0 1.661.754h.315a3.1 3.1 0 0 0 2.072-.811 3 3 0 0 0 .773-3.007h10.624a.477.477 0 0 0 .477-.477V1.978a.477.477 0 0 0-.477-.477M1.955 15.132V5.051a2.68 2.68 0 0 1 2.758-2.596h2.014v2.577l-.82.182c-2.043.439-2.043 2.329-2.043 3.446v2.863c0 1.184 0 2.978 1.985 3.436l.878.21v2.558H4.713a2.68 2.68 0 0 1-2.758-2.596m20.044 2.596H10.545V2.455H22z"/><path d="M12.932 8.182h6.681a.477.477 0 0 0 .477-.477V4.841a.477.477 0 0 0-.477-.477h-6.681a.477.477 0 0 0-.478.477v2.864a.477.477 0 0 0 .477.477m.477-2.863h5.727v1.909h-5.727zm-.476 4.772h.954a.477.477 0 0 0 0-.954h-.954a.477.477 0 1 0 0 .954m3.818-.954h-.955a.477.477 0 1 0 0 .954h.955a.477.477 0 0 0 0-.954m2.863 0h-.954a.477.477 0 1 0 0 .954h.954a.477.477 0 0 0 0-.954m-6.681 3.818h.954a.477.477 0 1 0 0-.955h-.954a.477.477 0 0 0 0 .955M16.75 12h-.955a.477.477 0 0 0 0 .955h.955a.477.477 0 1 0 0-.955m2.863 0h-.954a.477.477 0 0 0 0 .955h.954a.477.477 0 1 0 0-.955m-6.681 3.818h.954a.477.477 0 0 0 0-.954h-.954a.477.477 0 1 0 0 .954m3.818-.954h-.955a.477.477 0 1 0 0 .954h.955a.477.477 0 0 0 0-.954m2.863 0h-.954a.477.477 0 1 0 0 .954h.954a.477.477 0 0 0 0-.954"/></mask><path stroke="#4E5361" stroke-width="2" d="M22.477 1.5h-12.41a.477.477 0 0 0-.476.478v16.227a.477.477 0 0 0 .477.477h.783a2.13 2.13 0 0 1-.42 2.329 2.08 2.08 0 0 1-1.633.535 1.9 1.9 0 0 1-1.116-.487 2.16 2.16 0 0 1-.2-2.482.5.5 0 0 0 .2-.372v-3.341a.47.47 0 0 0-.373-.458l-1.25-.334c-1.06-.249-1.24-.955-1.24-2.51V8.697c0-1.508.19-2.282 1.297-2.52L7.31 5.92a.47.47 0 0 0 .373-.506V1.978a.477.477 0 0 0-.478-.477h-2.49A3.646 3.646 0 0 0 1 5.05v10.08a3.646 3.646 0 0 0 3.713 3.55h1.709a2.96 2.96 0 0 0 .61 3.065 3 3 0 0 0 1.661.754h.315a3.1 3.1 0 0 0 2.072-.811 3 3 0 0 0 .773-3.007h10.624a.477.477 0 0 0 .477-.477V1.978a.477.477 0 0 0-.477-.477ZM1.955 15.132V5.051a2.68 2.68 0 0 1 2.758-2.596h2.014v2.577l-.82.182c-2.043.439-2.043 2.329-2.043 3.446v2.863c0 1.184 0 2.978 1.985 3.436l.878.21v2.558H4.713a2.68 2.68 0 0 1-2.758-2.596Zm20.044 2.596H10.545V2.455H22z" mask="url(#a)"/><path stroke="#4E5361" stroke-width="2" d="M12.932 8.182h6.681a.477.477 0 0 0 .477-.477V4.841a.477.477 0 0 0-.477-.477h-6.681a.477.477 0 0 0-.478.477v2.864a.477.477 0 0 0 .477.477Zm.477-2.863h5.727v1.909h-5.727zm-.477 4.772h.954a.477.477 0 0 0 0-.954h-.954a.477.477 0 1 0 0 .954Zm3.818-.954h-.955a.477.477 0 1 0 0 .954h.955a.477.477 0 0 0 0-.954Zm2.863 0h-.954a.477.477 0 1 0 0 .954h.954a.477.477 0 0 0 0-.954Zm-6.681 3.818h.954a.477.477 0 1 0 0-.955h-.954a.477.477 0 0 0 0 .955ZM16.75 12h-.955a.477.477 0 0 0 0 .955h.955a.477.477 0 1 0 0-.955Zm2.863 0h-.954a.477.477 0 0 0 0 .955h.954a.477.477 0 1 0 0-.955Zm-6.681 3.818h.954a.477.477 0 0 0 0-.954h-.954a.477.477 0 1 0 0 .954Zm3.818-.954h-.955a.477.477 0 1 0 0 .954h.955a.477.477 0 0 0 0-.954Zm2.863 0h-.954a.477.477 0 1 0 0 .954h.954a.477.477 0 0 0 0-.954Z" mask="url(#a)"/></svg>