<svg xmlns="http://www.w3.org/2000/svg" width="24" height="24" fill="none"><g stroke="#4E5361" clip-path="url(#a)"><path stroke-miterlimit="10" d="M12 22.56c5.832 0 10.56-4.728 10.56-10.56S17.832 1.44 12 1.44 1.44 6.168 1.44 12 6.168 22.56 12 22.56Z"/><path d="M16.456 7.905q.189-.002.333.066c.216.103.326.333.292.679-.11 1.142-1.006 6.94-1.197 7.52-.164.497-.336.925-.664.925s-.686-.113-1.038-.364a185 185 0 0 0-3.022-2.012c-.286-.178-.588-.623-.162-1.053.35-.354 3.006-2.91 3.233-3.135.169-.168.09-.37-.076-.37a.32.32 0 0 0-.196.081c-.277.225-4.148 2.793-4.483 2.999-.222.137-.565.235-.922.235q-.23.001-.454-.058a35 35 0 0 1-1.733-.525c-.332-.118-.453-.23-.453-.433 0-.287.408-.485.839-.666.455-.192 8.324-3.505 8.939-3.724.285-.103.545-.165.764-.165Zm0-.905c-.312 0-.664.072-1.074.218-.637.228-8.134 3.384-8.987 3.743-.487.205-1.395.588-1.395 1.5 0 .604.357 1.036 1.06 1.285.378.134 1.276.403 1.797.545a2.793 2.793 0 0 0 2.018-.232q-.006.116.008.23c.056.476.352.923.79 1.197.287.18 2.628 1.735 2.978 1.982.491.348 1.034.532 1.57.532 1.022 0 1.366-1.047 1.531-1.55.24-.73 1.137-6.667 1.238-7.714.07-.717-.232-1.309-.807-1.581A1.7 1.7 0 0 0 16.456 7Z"/></g><defs><clipPath id="a"><path fill="#fff" d="M0 0h24v24H0z"/></clipPath></defs></svg>