<svg xmlns="http://www.w3.org/2000/svg" width="24" height="24" fill="none"><g stroke="#4E5361" stroke-miterlimit="10" clip-path="url(#a)"><path d="M16.787 14.177c1.074.953 1.297 1.293 1.334 1.351.444.706-.494.792-.494.792h-1.978s-.481.005-.892-.267c-.67-.44-1.373-1.291-1.867-1.143-.414.124-.41.683-.41 1.162 0 .171-.147.248-.48.248h-.618c-1.084 0-2.26-.365-3.432-1.59-1.659-1.732-3.114-5.222-3.114-5.222s-.085-.176.008-.283c.106-.12.395-.104.395-.104l1.917-.001s.18.034.31.125a.6.6 0 0 1 .167.218s.322 1.064.732 1.742c.802 1.324 1.175 1.357 1.447 1.215.398-.206.268-1.614.268-1.614s.018-.604-.19-.873c-.16-.209-.465-.32-.599-.337-.108-.014.073-.203.303-.31.307-.138.725-.173 1.446-.166.561.005.723.039.942.09.662.152.498.555.498 1.969 0 .453-.062 1.09.28 1.301.147.091.652.203 1.55-1.257.427-.691.766-1.84.766-1.84s.07-.126.18-.189.107-.062.26-.062 1.683-.012 2.02-.012c.335 0 .65-.004.704.193.078.283-.247 1.251-1.072 2.303-1.355 1.725-1.506 1.563-.381 2.56Z"/><path stroke-linecap="round" d="M12 22.56c5.832 0 10.56-4.728 10.56-10.56S17.832 1.44 12 1.44 1.44 6.168 1.44 12 6.168 22.56 12 22.56Z"/></g><defs><clipPath id="a"><path fill="#fff" d="M0 0h24v24H0z"/></clipPath></defs></svg>