<svg width="24" height="24" viewBox="0 0 24 24" fill="none" xmlns="http://www.w3.org/2000/svg">
<path fill-rule="evenodd" clip-rule="evenodd" d="M21.4881 14.4043C21.4923 14.3381 21.4964 14.2719 21.4993 14.2053C21.5665 12.6705 21.2827 11.2029 20.7206 9.88289L16.0369 9.87377L16.112 11.2449L19.6428 11.3716C19.8139 11.7201 19.9648 12.4242 20.0748 12.9892L12.4655 12.9907C12.428 10.5255 12.4951 7.86427 12.4576 5.399C14.5697 5.58057 16.4197 6.5471 17.7943 8.12047L19.7547 8.13282C18.1057 5.7543 15.4361 4.15017 12.3629 4.00993C7.08067 3.76891 2.60713 7.9427 2.37088 13.3324C2.35523 13.6893 2.35913 14.0424 2.38052 14.3911L3.63682 14.392C3.65356 13.1929 3.79556 12.1409 4.03969 11.2203L11.0608 11.2067L11.062 14.3973L21.4881 14.4043ZM4.5515 9.77318C5.87946 6.84856 8.46524 5.65499 11.0624 5.33533L11.0632 9.76062L4.5515 9.77318Z" fill="#4E5361"/>
<path d="M2 19.9533L2.89955 17.9092H3.58156L4.4811 19.9533H3.76382L3.09945 18.2362H3.3699L2.70553 19.9533H2ZM2.53502 19.597L2.71141 19.1006H3.65799L3.83437 19.597H2.53502Z" fill="#4E5361"/>
<path d="M4.67103 19.9533V17.9092H6.23789V18.4436H5.20312L5.35304 18.2946V19.9533H4.67103Z" fill="#4E5361"/>
<path d="M6.46815 19.9533V17.9092H7.15016V18.9721L7.85863 17.9092H8.51124V19.9533H7.82923V18.8933L7.12371 19.9533H6.46815Z" fill="#4E5361"/>
<path d="M9.34416 19.9533V18.2946L9.49409 18.4436H8.74153V17.9092H10.6288V18.4436H9.87625L10.0262 18.2946V19.9533H9.34416Z" fill="#4E5361"/>
<path d="M10.6899 19.3576V18.8611H11.5718V19.3576H10.6899Z" fill="#4E5361"/>
<path d="M11.8853 19.9533V17.9092H13.8755V19.9533H13.1935V18.2976L13.3434 18.4436H12.4174L12.5674 18.2976V19.9533H11.8853Z" fill="#4E5361"/>
<path d="M14.3923 19.9912C14.3491 19.9912 14.3031 19.9883 14.2541 19.9825C14.2051 19.9766 14.1532 19.9669 14.0983 19.9533L14.1336 19.4014C14.161 19.4072 14.1865 19.4101 14.21 19.4101C14.2864 19.4101 14.3433 19.379 14.3805 19.3167C14.4177 19.2544 14.4432 19.1707 14.4569 19.0656C14.4707 18.9585 14.4795 18.8388 14.4834 18.7064L14.5099 17.9092H16.2472V19.9533H15.5652V18.2976L15.7151 18.4436H14.9655L15.1007 18.2888L15.089 18.6801C15.0831 18.8767 15.0694 19.0558 15.0478 19.2174C15.0282 19.377 14.9939 19.5153 14.9449 19.6321C14.8959 19.7469 14.8264 19.8355 14.7362 19.8978C14.648 19.9601 14.5334 19.9912 14.3923 19.9912Z" fill="#4E5361"/>
<path d="M16.6107 19.9533V17.9092H17.2927V18.6334H17.8248V19.1999H17.2927V19.9533H16.6107ZM18.5538 20C18.3892 20 18.2373 19.9737 18.0982 19.9212C17.961 19.8686 17.8404 19.7946 17.7366 19.6992C17.6347 19.6019 17.5553 19.488 17.4985 19.3576C17.4436 19.2271 17.4162 19.085 17.4162 18.9312C17.4162 18.7755 17.4436 18.6334 17.4985 18.5049C17.5553 18.3744 17.6347 18.2615 17.7366 18.1661C17.8404 18.0688 17.961 17.9939 18.0982 17.9413C18.2373 17.8887 18.3892 17.8625 18.5538 17.8625C18.7184 17.8625 18.8693 17.8887 19.0065 17.9413C19.1457 17.9939 19.2662 18.0688 19.3681 18.1661C19.47 18.2615 19.5484 18.3744 19.6033 18.5049C19.6601 18.6334 19.6885 18.7755 19.6885 18.9312C19.6885 19.085 19.6601 19.2271 19.6033 19.3576C19.5484 19.488 19.47 19.6019 19.3681 19.6992C19.2662 19.7946 19.1457 19.8686 19.0065 19.9212C18.8693 19.9737 18.7184 20 18.5538 20ZM18.5538 19.4423C18.6146 19.4423 18.6704 19.4306 18.7214 19.4072C18.7743 19.3838 18.8203 19.3508 18.8595 19.3079C18.9007 19.2631 18.9321 19.2096 18.9536 19.1473C18.9771 19.0831 18.9889 19.011 18.9889 18.9312C18.9889 18.8514 18.9771 18.7803 18.9536 18.7181C18.9321 18.6538 18.9007 18.6003 18.8595 18.5574C18.8203 18.5127 18.7743 18.4786 18.7214 18.4552C18.6704 18.4319 18.6146 18.4202 18.5538 18.4202C18.4931 18.4202 18.4362 18.4319 18.3833 18.4552C18.3304 18.4786 18.2834 18.5127 18.2422 18.5574C18.203 18.6003 18.1717 18.6538 18.1481 18.7181C18.1266 18.7803 18.1158 18.8514 18.1158 18.9312C18.1158 19.011 18.1266 19.0831 18.1481 19.1473C18.1717 19.2096 18.203 19.2631 18.2422 19.3079C18.2834 19.3508 18.3304 19.3838 18.3833 19.4072C18.4362 19.4306 18.4931 19.4423 18.5538 19.4423Z" fill="#4E5361"/>
<path d="M20.9756 20C20.8109 20 20.6581 19.9747 20.517 19.9241C20.3778 19.8715 20.2563 19.7975 20.1525 19.7021C20.0505 19.6068 19.9712 19.4938 19.9143 19.3634C19.8575 19.233 19.8291 19.0889 19.8291 18.9312C19.8291 18.7735 19.8575 18.6295 19.9143 18.499C19.9712 18.3686 20.0505 18.2557 20.1525 18.1603C20.2563 18.0649 20.3778 17.9919 20.517 17.9413C20.6581 17.8887 20.8109 17.8625 20.9756 17.8625C21.1774 17.8625 21.3558 17.8975 21.5106 17.9676C21.6674 18.0377 21.7967 18.1389 21.8986 18.2713L21.4606 18.6597C21.3999 18.5837 21.3323 18.5253 21.2578 18.4844C21.1853 18.4416 21.103 18.4202 21.0108 18.4202C20.9383 18.4202 20.8727 18.4319 20.8139 18.4552C20.7551 18.4786 20.7041 18.5127 20.661 18.5574C20.6199 18.6022 20.5875 18.6567 20.564 18.721C20.5405 18.7833 20.5287 18.8534 20.5287 18.9312C20.5287 19.0091 20.5405 19.0802 20.564 19.1444C20.5875 19.2067 20.6199 19.2602 20.661 19.305C20.7041 19.3498 20.7551 19.3838 20.8139 19.4072C20.8727 19.4306 20.9383 19.4423 21.0108 19.4423C21.103 19.4423 21.1853 19.4218 21.2578 19.3809C21.3323 19.3381 21.3999 19.2787 21.4606 19.2028L21.8986 19.5912C21.7967 19.7216 21.6674 19.8228 21.5106 19.8949C21.3558 19.965 21.1774 20 20.9756 20Z" fill="#4E5361"/>
</svg>
