<svg width="117" height="98" viewBox="0 0 117 98" fill="none" xmlns="http://www.w3.org/2000/svg">
<path d="M113.608 63.5699L114.547 63.5706L114.606 62.6327C114.631 62.2477 114.655 61.8532 114.672 61.4551L114.672 61.4547C115.067 52.3691 113.398 43.6771 110.091 35.8583L109.833 35.2492L109.172 35.2479L82.0863 35.1949L81.0282 35.1928L81.0858 36.2492L81.5205 44.2314L81.5702 45.1434L82.4829 45.1764L102.277 45.8917C102.642 46.7899 103.004 48.011 103.348 49.3927C103.665 50.6625 103.958 52.0274 104.219 53.3318L62.4176 53.3405C62.327 46.4801 62.3677 39.37 62.4086 32.2483L62.4086 32.2421C62.4492 25.1717 62.4898 18.0899 62.4011 11.2492C73.8901 12.5174 83.9483 17.9505 91.4923 26.6432L91.7888 26.9849L92.2412 26.9878L103.578 27.0597L105.495 27.0719L104.408 25.4925C94.7057 11.4049 78.9886 1.89053 60.8837 1.05889C29.7596 -0.370795 3.44524 24.3821 2.05611 56.2864C1.96399 58.4001 1.98697 60.4905 2.11273 62.5538L2.16993 63.4923L3.11016 63.493L10.3753 63.4982L11.3622 63.4989L11.3759 62.5121C11.4672 55.924 12.21 50.1252 13.4819 45.0322L52.3086 44.9565L52.3154 62.5294L52.3158 63.5283L53.3147 63.529L113.608 63.5699ZM52.322 34.5381L17.2434 34.6062C24.7096 19.43 38.3352 12.8906 52.3178 10.915L52.322 34.5381Z" fill="white" stroke="white" stroke-width="2"/>
<line x1="3" y1="72.8739" x2="116.569" y2="72.8739" stroke="white" stroke-width="4"/>
<path d="M0.910375 94.8739L6.11238 82.9739H10.0564L15.2584 94.8739H11.1104L7.26838 84.8779H8.83238L4.99038 94.8739H0.910375ZM4.00438 92.7999L5.02438 89.9099H10.4984L11.5184 92.7999H4.00438ZM16.3567 94.8739V82.9739H25.4177V86.0849H19.4337L20.3007 85.2179V94.8739H16.3567ZM26.7493 94.8739V82.9739H30.6933V89.1619L34.7903 82.9739H38.5643V94.8739H34.6203V88.7029L30.5403 94.8739H26.7493ZM43.381 94.8739V85.2179L44.248 86.0849H39.896V82.9739H50.81V86.0849H46.458L47.325 85.2179V94.8739H43.381ZM51.1634 91.4059V88.5159H56.2634V91.4059H51.1634ZM58.0765 94.8739V82.9739H69.5855V94.8739H65.6415V85.2349L66.5085 86.0849H61.1535L62.0205 85.2349V94.8739H58.0765ZM72.5737 95.0949C72.3244 95.0949 72.0581 95.0779 71.7747 95.0439C71.4914 95.0099 71.1911 94.9532 70.8737 94.8739L71.0777 91.6609C71.2364 91.6949 71.3837 91.7119 71.5197 91.7119C71.9617 91.7119 72.2904 91.5306 72.5057 91.1679C72.7211 90.8052 72.8684 90.3179 72.9477 89.7059C73.0271 89.0826 73.0781 88.3856 73.1007 87.6149L73.2537 82.9739H83.3007V94.8739H79.3567V85.2349L80.2237 86.0849H75.8887L76.6707 85.1839L76.6027 87.4619C76.5687 88.6066 76.4894 89.6492 76.3647 90.5899C76.2514 91.5192 76.0531 92.3239 75.7697 93.0039C75.4864 93.6726 75.0841 94.1882 74.5627 94.5509C74.0527 94.9136 73.3897 95.0949 72.5737 95.0949ZM85.4026 94.8739V82.9739H89.3466V87.1899H92.4236V90.4879H89.3466V94.8739H85.4026ZM96.6396 95.1459C95.6876 95.1459 94.8093 94.9929 94.0046 94.6869C93.2113 94.3809 92.5143 93.9502 91.9136 93.3949C91.3243 92.8282 90.8653 92.1652 90.5366 91.4059C90.2193 90.6466 90.0606 89.8192 90.0606 88.9239C90.0606 88.0172 90.2193 87.1899 90.5366 86.4419C90.8653 85.6826 91.3243 85.0252 91.9136 84.4699C92.5143 83.9032 93.2113 83.4669 94.0046 83.1609C94.8093 82.8549 95.6876 82.7019 96.6396 82.7019C97.5916 82.7019 98.4643 82.8549 99.2576 83.1609C100.062 83.4669 100.759 83.9032 101.349 84.4699C101.938 85.0252 102.391 85.6826 102.709 86.4419C103.037 87.1899 103.202 88.0172 103.202 88.9239C103.202 89.8192 103.037 90.6466 102.709 91.4059C102.391 92.1652 101.938 92.8282 101.349 93.3949C100.759 93.9502 100.062 94.3809 99.2576 94.6869C98.4643 94.9929 97.5916 95.1459 96.6396 95.1459ZM96.6396 91.8989C96.991 91.8989 97.314 91.8309 97.6086 91.6949C97.9146 91.5589 98.181 91.3662 98.4076 91.1169C98.6456 90.8562 98.827 90.5446 98.9516 90.1819C99.0876 89.8079 99.1556 89.3886 99.1556 88.9239C99.1556 88.4592 99.0876 88.0456 98.9516 87.6829C98.827 87.3089 98.6456 86.9972 98.4076 86.7479C98.181 86.4872 97.9146 86.2889 97.6086 86.1529C97.314 86.0169 96.991 85.9489 96.6396 85.9489C96.2883 85.9489 95.9596 86.0169 95.6536 86.1529C95.3476 86.2889 95.0756 86.4872 94.8376 86.7479C94.611 86.9972 94.4296 87.3089 94.2936 87.6829C94.169 88.0456 94.1066 88.4592 94.1066 88.9239C94.1066 89.3886 94.169 89.8079 94.2936 90.1819C94.4296 90.5446 94.611 90.8562 94.8376 91.1169C95.0756 91.3662 95.3476 91.5589 95.6536 91.6949C95.9596 91.8309 96.2883 91.8989 96.6396 91.8989ZM110.644 95.1459C109.692 95.1459 108.808 94.9986 107.992 94.7039C107.188 94.3979 106.485 93.9672 105.884 93.4119C105.295 92.8566 104.836 92.1992 104.507 91.4399C104.179 90.6806 104.014 89.8419 104.014 88.9239C104.014 88.0059 104.179 87.1672 104.507 86.4079C104.836 85.6486 105.295 84.9912 105.884 84.4359C106.485 83.8806 107.188 83.4556 107.992 83.1609C108.808 82.8549 109.692 82.7019 110.644 82.7019C111.812 82.7019 112.843 82.9059 113.738 83.3139C114.645 83.7219 115.393 84.3112 115.982 85.0819L113.449 87.3429C113.098 86.9009 112.707 86.5609 112.276 86.3229C111.857 86.0736 111.381 85.9489 110.848 85.9489C110.429 85.9489 110.049 86.0169 109.709 86.1529C109.369 86.2889 109.075 86.4872 108.825 86.7479C108.587 87.0086 108.4 87.3259 108.264 87.6999C108.128 88.0626 108.06 88.4706 108.06 88.9239C108.06 89.3772 108.128 89.7909 108.264 90.1649C108.4 90.5276 108.587 90.8392 108.825 91.0999C109.075 91.3606 109.369 91.5589 109.709 91.6949C110.049 91.8309 110.429 91.8989 110.848 91.8989C111.381 91.8989 111.857 91.7799 112.276 91.5419C112.707 91.2926 113.098 90.9469 113.449 90.5049L115.982 92.7659C115.393 93.5252 114.645 94.1146 113.738 94.5339C112.843 94.9419 111.812 95.1459 110.644 95.1459Z" fill="white"/>
</svg>
