<svg width="24" height="24" viewBox="0 0 24 24" fill="none" xmlns="http://www.w3.org/2000/svg">
<g clip-path="url(#clip0_11_5)">
<path d="M12 22.5599C17.8321 22.5599 22.56 17.8321 22.56 11.9999C22.56 6.16781 17.8321 1.43994 12 1.43994C6.16788 1.43994 1.44 6.16781 1.44 11.9999C1.44 17.8321 6.16788 22.5599 12 22.5599Z" stroke="#4E5361" stroke-miterlimit="10"/>
<path d="M16.3622 7.69682C16.4942 7.69682 16.6123 7.71842 16.7122 7.7669C16.9392 7.87586 17.0549 8.11922 17.0198 8.48642C16.9037 9.69746 15.9614 15.8443 15.7608 16.4607C15.589 16.9877 15.408 17.4408 15.0634 17.4408C14.7187 17.4408 14.3424 17.3208 13.9714 17.0554C13.6003 16.7904 11.1365 15.1378 10.7942 14.9223C10.4942 14.7331 10.177 14.2613 10.6238 13.8053C10.992 13.4299 13.7846 10.7194 14.0232 10.4808C14.2008 10.3027 14.1173 10.0882 13.943 10.0882C13.883 10.0882 13.812 10.1136 13.7376 10.1746C13.4458 10.4131 9.3768 13.1357 9.02448 13.3546C8.7912 13.4995 8.43024 13.6042 8.05536 13.6042C7.89552 13.6042 7.73328 13.585 7.57776 13.5423C7.03632 13.393 6.12 13.1151 5.75616 12.9855C5.40624 12.8607 5.27952 12.7407 5.27952 12.5266C5.27952 12.2223 5.70864 12.0125 6.16128 11.82C6.63936 11.617 14.9122 8.10386 15.5592 7.87106C15.8587 7.76258 16.1323 7.69682 16.3622 7.69682ZM16.3622 6.73682C16.0339 6.73682 15.6648 6.81266 15.2333 6.96818C14.5632 7.20962 6.68208 10.5562 5.78544 10.9368C5.2728 11.1547 4.31856 11.5603 4.31856 12.5271C4.31856 13.1679 4.69344 13.6263 5.43264 13.8903C5.83008 14.0319 6.77424 14.3175 7.32192 14.4682C7.55424 14.532 7.80096 14.5647 8.05488 14.5647C8.55168 14.5647 9.05136 14.4408 9.44304 14.2224C9.43968 14.3031 9.44256 14.3847 9.45216 14.4663C9.5112 14.9703 9.82176 15.4445 10.2826 15.7349C10.584 15.925 13.0459 17.5747 13.4136 17.8368C13.9301 18.2059 14.5008 18.4008 15.0634 18.4008C16.1386 18.4008 16.5 17.2911 16.6738 16.7578C16.9258 15.9835 17.869 9.68786 17.9755 8.57762C18.048 7.81682 17.7307 7.18994 17.1269 6.90098C16.9008 6.79202 16.643 6.73682 16.3622 6.73682Z" fill="#4E5361"/>
</g>
<defs>
<clipPath id="clip0_11_5">
<rect width="24" height="24" fill="white"/>
</clipPath>
</defs>
</svg>
