<svg width="24" height="24" viewBox="0 0 24 24" fill="none" xmlns="http://www.w3.org/2000/svg">
<g clip-path="url(#clip0_11_2)">
<path d="M16.787 14.1768C17.8608 15.1301 18.084 15.4704 18.1205 15.5285C18.5654 16.2341 17.627 16.32 17.627 16.32H15.6494C15.6494 16.32 15.168 16.3253 14.7566 16.0527C14.0861 15.6135 13.3838 14.762 12.8899 14.9098C12.4762 15.0336 12.48 15.5933 12.48 16.0719C12.48 16.2432 12.3326 16.32 12 16.32C11.6674 16.32 11.5291 16.32 11.3818 16.32C10.2984 16.32 9.12289 15.9552 7.95025 14.7298C6.29136 12.9975 4.83649 9.50789 4.83649 9.50789C4.83649 9.50789 4.75056 9.3322 4.84416 9.22516C4.95024 9.10516 5.23872 9.12052 5.23872 9.12052L7.15633 9.12004C7.15633 9.12004 7.33681 9.15412 7.46641 9.24532C7.57345 9.3202 7.63297 9.46324 7.63297 9.46324C7.63297 9.46324 7.95504 10.5269 8.36544 11.2052C9.16704 12.529 9.54 12.5621 9.81216 12.42C10.2096 12.2136 10.08 10.8063 10.08 10.8063C10.08 10.8063 10.0978 10.202 9.89041 9.93269C9.73057 9.72437 9.42481 9.61349 9.29137 9.59621C9.18337 9.58229 9.36384 9.39316 9.59376 9.28516C9.90096 9.14836 10.319 9.11332 11.04 9.12004C11.6011 9.12532 11.7629 9.15893 11.9818 9.20933C12.6437 9.36197 12.48 9.76468 12.48 11.1788C12.48 11.6319 12.4176 12.2688 12.7594 12.48C12.9067 12.5712 13.4117 12.6826 14.3102 11.2234C14.737 10.5317 15.0763 9.38309 15.0763 9.38309C15.0763 9.38309 15.1464 9.25685 15.2554 9.19445C15.3667 9.13061 15.3634 9.13204 15.516 9.13204C15.6686 9.13204 17.1994 9.12004 17.5354 9.12004C17.8709 9.12004 18.1858 9.11621 18.24 9.31301C18.3178 9.59573 17.9928 10.5644 17.1677 11.6156C15.8131 13.3407 15.6624 13.1794 16.787 14.1768Z" stroke="#4E5361" stroke-miterlimit="10"/>
<path d="M12 22.5599C17.8321 22.5599 22.56 17.8321 22.56 11.9999C22.56 6.16781 17.8321 1.43994 12 1.43994C6.16788 1.43994 1.44 6.16781 1.44 11.9999C1.44 17.8321 6.16788 22.5599 12 22.5599Z" stroke="#4E5361" stroke-miterlimit="10" stroke-linecap="round"/>
</g>
<defs>
<clipPath id="clip0_11_2">
<rect width="24" height="24" fill="white"/>
</clipPath>
</defs>
</svg>
