<svg xmlns="http://www.w3.org/2000/svg" width="725" height="311" fill="none"><path fill="url(#a)" d="m641.792 189.437-1.67-.829c.187.064.372.122.56.185q.928.418 1.861.846c-.251-.069-.5-.133-.751-.202m-10.555-4.38c-.431-.226-.866-.457-1.295-.68l.175.065 1.626.772zm6.01 3.153c-.949-.503-1.886-.985-2.834-1.486.49.158.985.327 1.476.487.927.452 1.865.925 2.798 1.389-.479-.129-.961-.263-1.44-.39m-16.756-7.901c-.36-.194-.712-.374-1.071-.567l.009.004c.413.205.831.42 1.245.627zm5.943 3.259c-.849-.467-1.702-.941-2.547-1.402.386.137.77.269 1.155.408.961.488 1.907.952 2.872 1.449-.493-.15-.988-.307-1.48-.455m6.318 3.498c-1.194-.672-2.372-1.318-3.56-1.978q.919.284 1.839.571c1.186.618 2.378 1.248 3.567 1.872zm-476.898 54.975.415-.174q.474-.03.947-.062l-.385.135q-.488.051-.977.101m453.397-66.93-.373-.206c.169.088.336.169.505.257zm6.309 3.515c-.787-.449-1.566-.884-2.347-1.323.306.118.611.231.918.35.83.437 1.666.885 2.496 1.323-.357-.12-.71-.232-1.067-.35m6.262 3.596c-1.14-.655-2.283-1.314-3.419-1.964.626.214 1.256.438 1.884.655 1.119.604 2.249 1.225 3.38 1.847q-.924-.27-1.845-.538m6.421 3.739a566 566 0 0 0-4.069-2.388c.687.203 1.37.394 2.058.6 1.396.772 2.784 1.53 4.182 2.304-.725-.178-1.448-.343-2.171-.516m-475.999 56.451q.361-.178.722-.358l1.394-.077c-.235.097-.468.197-.703.292q-.707.073-1.413.143m-2.128 1.023.473-.226.949-.088-.414.166q-.505.076-1.008.148m-1.971.933.066-.031.299-.04zM604.31 173.3c-.737-.421-1.479-.85-2.218-1.275l1.097.451c.718.39 1.45.802 2.175 1.203-.352-.128-.702-.251-1.054-.379m6.379 3.729c-1.077-.644-2.157-1.292-3.219-1.912.52.191 1.049.401 1.57.596 1.149.637 2.29 1.265 3.44 1.903-.597-.193-1.196-.395-1.791-.587m6.537 3.896-4.031-2.403c.719.237 1.436.467 2.158.708 1.299.735 2.615 1.499 3.927 2.255-.688-.193-1.369-.371-2.054-.56m6.552 3.989c-1.507-.934-3.018-1.872-4.502-2.768.776.219 1.558.455 2.337.679 1.539.891 3.063 1.758 4.61 2.662-.815-.19-1.632-.389-2.445-.573m-475.043 57.822q.453-.253.907-.511.85-.038 1.7-.08c-.303.147-.608.289-.911.435-.566.051-1.13.106-1.696.156m-2.067 1.16q.355-.196.709-.396.691-.059 1.381-.122l-.714.334q-.688.094-1.376.184m-2.035 1.105.469-.254.956-.121-.426.195zm-1.911 1.017.103-.054.378-.063-.027.012zm450.153-78.349c-.66-.392-1.325-.793-1.98-1.177q.322.14.644.283c.764.425 1.521.838 2.287 1.265zm6.463 3.844c-1.048-.626-2.087-1.239-3.133-1.863.514.203 1.023.393 1.539.598 1.058.601 2.132 1.226 3.199 1.84-.533-.188-1.073-.389-1.605-.575m6.607 4.032c-1.279-.791-2.562-1.589-3.823-2.353q.989.352 1.98.712c1.326.768 2.637 1.513 3.972 2.296-.712-.224-1.419-.436-2.129-.655m6.714 4.133c-1.521-.943-3.027-1.862-4.543-2.796q1.18.37 2.363.751c1.489.879 2.99 1.779 4.49 2.675-.769-.207-1.543-.428-2.31-.63m6.768 4.286c-1.637-1.047-3.281-2.105-4.892-3.111q1.24.334 2.483.677 2.443 1.47 4.912 2.977c-.836-.185-1.669-.363-2.503-.543m-474.133 59.061q.493-.324.986-.649.979-.041 1.958-.087-.517.292-1.034.581-.954.078-1.91.155m-2.024 1.297q.441-.28.881-.561.844-.067 1.686-.137l-.915.498q-.827.1-1.652.2m-1.985 1.247q.364-.223.728-.448.685-.082 1.367-.166-.371.195-.744.389zm-1.927 1.182c.158-.095.314-.194.471-.289.327-.052.652-.109.978-.162l-.457.236q-.495.109-.992.215m-1.855 1.102.147-.087.419-.085-.077.039q-.244.066-.489.133m443.864-86.058c-.657-.397-1.289-.758-1.94-1.148.137.062.271.118.409.181.698.396 1.404.806 2.103 1.205-.19-.078-.383-.161-.572-.238m6.425 3.936c-.968-.593-1.941-1.195-2.902-1.778.483.201.964.398 1.448.602 1.012.587 2.012 1.157 3.033 1.757-.53-.201-1.05-.383-1.579-.581m6.8 4.174c-1.322-.823-2.615-1.603-3.928-2.414.664.254 1.336.524 2.003.781 1.272.751 2.553 1.518 3.83 2.279q-.954-.327-1.905-.646m6.62 4.196c-1.447-.921-2.898-1.847-4.33-2.744.754.258 1.499.5 2.255.764q2.203 1.326 4.434 2.694c-.786-.238-1.575-.483-2.359-.714m6.985 4.44c-1.669-1.074-3.311-2.106-4.967-3.161.834.251 1.674.513 2.512.772q2.434 1.494 4.881 3.005a392 392 0 0 0-2.426-.616m6.905 4.516c-1.758-1.155-3.519-2.315-5.255-3.437.87.223 1.735.435 2.606.664a627 627 0 0 1 5.214 3.297c-.857-.18-1.71-.35-2.565-.524m-473.235 60.231c.355-.265.712-.526 1.066-.793q1.064-.035 2.128-.072-.55.356-1.1.71-1.047.08-2.094.155m-1.927 1.423q.487-.356.972-.714c.632-.044 1.265-.084 1.896-.131-.331.21-.66.424-.992.632q-.938.11-1.876.213m-1.922 1.379q.431-.308.861-.618.821-.087 1.641-.179-.448.278-.897.553c-.534.084-1.07.161-1.605.244m-1.903 1.329q.36-.248.719-.499l1.342-.204-.737.436q-.662.136-1.324.267m-1.848 1.265c.169-.115.34-.225.509-.34q.483-.096.964-.194-.252.143-.503.285-.484.125-.97.249m-1.752 1.166.175-.116q.224-.053.448-.107l-.122.069zm436.903-94.29c-.518-.314-1.039-.633-1.558-.948l.589.273c.527.306 1.062.623 1.595.937-.211-.091-.416-.173-.626-.262m6.777 4.168a402 402 0 0 0-2.782-1.735q.587.258 1.175.518c.981.579 1.967 1.166 2.946 1.744-.448-.179-.892-.35-1.339-.527m6.634 4.18c-1.242-.783-2.488-1.572-3.725-2.348.679.274 1.362.555 2.044.834 1.205.725 2.435 1.486 3.66 2.241-.659-.242-1.322-.49-1.979-.727m6.883 4.378a828 828 0 0 0-4.292-2.746c.72.265 1.435.523 2.157.792l4.358 2.673c-.744-.246-1.482-.479-2.223-.719m6.914 4.498a1265 1265 0 0 0-4.854-3.158c.865.285 1.741.591 2.61.884 1.547.963 3.128 1.976 4.701 2.979q-1.23-.357-2.457-.705m7.078 4.648c-1.76-1.168-3.502-2.313-5.243-3.454.849.245 1.693.479 2.545.731 1.76 1.116 3.512 2.219 5.281 3.347-.863-.213-1.722-.417-2.583-.624m7.108 4.766a1220 1220 0 0 0-5.597-3.752c.922.225 1.851.47 2.775.703 1.8 1.157 3.642 2.376 5.474 3.581-.884-.178-1.77-.362-2.652-.532M142.135 240.32c17.743-15.826 33.709-35.222 49.976-54.993 59.68-72.536 123.478-150.019 294.625-73.32M138.47 243.522c.358-.304.713-.615 1.069-.923a578 578 0 0 0 2.291-.066q-.563.419-1.125.835c-.744.053-1.488.107-2.235.154m-1.85 1.549q.514-.426 1.024-.857 1.05-.063 2.096-.137-.535.388-1.074.771-1.02.116-2.046.223m-1.835 1.504c.32-.259.641-.513.959-.774q.933-.093 1.863-.191-.495.348-.992.694-.913.138-1.83.271m-1.816 1.456q.424-.335.846-.673c.532-.074 1.065-.143 1.596-.221-.289.199-.574.401-.863.597-.525.102-1.053.198-1.579.297m-1.807 1.407q.351-.273.703-.548l1.314-.244q-.362.241-.725.483zm-1.781 1.345.508-.38q.48-.113.957-.229l-.505.324c-.321.094-.64.193-.96.285m-1.646 1.221.198-.143.44-.122-.172.105q-.233.08-.466.16m429.839-102.787c-.443-.277-.892-.561-1.333-.833l.115.055c.548.324 1.091.639 1.64.964zm6.727 4.203c-.956-.597-1.912-1.192-2.871-1.794.451.205.914.427 1.366.634.918.552 1.852 1.128 2.779 1.693q-.638-.268-1.274-.533m6.671 4.25c-1.131-.733-2.268-1.475-3.381-2.183.538.228 1.067.441 1.607.672 1.262.772 2.509 1.521 3.777 2.301-.665-.258-1.341-.536-2.003-.79m6.994 4.518-4.27-2.758q1.14.447 2.285.9c1.358.846 2.739 1.724 4.115 2.594-.714-.253-1.418-.488-2.13-.736m6.973 4.581a749 749 0 0 0-4.718-3.125c.792.281 1.591.576 2.387.863 1.628 1.03 3.232 2.024 4.87 3.07-.847-.27-1.696-.544-2.539-.808m7.125 4.747a3898 3898 0 0 0-5.195-3.461c.877.278 1.752.551 2.632.837 1.676 1.077 3.379 2.194 5.078 3.304-.841-.234-1.676-.452-2.515-.68m7.201 4.872a950 950 0 0 0-5.537-3.763c.892.246 1.791.511 2.686.764 1.857 1.214 3.698 2.404 5.57 3.639-.906-.213-1.815-.434-2.719-.64m7.343 5.036a2263 2263 0 0 0-5.882-4.034q1.382.32 2.769.651c1.904 1.261 3.839 2.569 5.771 3.87-.888-.168-1.773-.326-2.658-.487m-471.533 62.294c.358-.348.717-.693 1.073-1.044a386 386 0 0 0 2.41-.054q-.568.485-1.137.964-1.173.07-2.346.134m-1.737 1.666q.518-.49 1.035-.983 1.111-.06 2.223-.127c-.361.301-.719.606-1.081.903q-1.088.105-2.177.207m-1.737 1.631c.326-.301.649-.608.973-.913q1.019-.093 2.035-.194-.514.419-1.032.833c-.658.092-1.316.187-1.976.274m-1.75 1.588q.457-.412.913-.828c.609-.078 1.216-.163 1.823-.247q-.483.379-.967.754-.883.165-1.769.321m-1.736 1.536c.278-.243.558-.483.835-.729.521-.09 1.045-.176 1.566-.269-.292.223-.588.44-.881.661-.505.116-1.014.224-1.52.337m-1.714 1.482q.352-.298.703-.598l1.28-.284q-.357.265-.713.528-.634.178-1.27.354m-1.677 1.409.499-.418q.465-.126.929-.254-.252.183-.502.361-.463.157-.926.311m-1.591 1.294.21-.17.453-.146-.188.128zm422.593-111.611-.09-.056.107.065zm6.436 4.118c-.83-.531-1.667-1.071-2.493-1.596.347.164.686.314 1.034.479.964.588 1.904 1.143 2.876 1.741-.47-.204-.948-.421-1.417-.624m7.008 4.484c-1.178-.762-2.331-1.486-3.507-2.244q.849.371 1.699.749c1.124.698 2.261 1.414 3.39 2.119-.532-.217-1.052-.41-1.582-.624m6.874 4.526c-1.381-.916-2.767-1.838-4.131-2.729.716.294 1.444.607 2.163.905 1.396.881 2.783 1.748 4.193 2.649-.745-.28-1.484-.551-2.225-.825m7.074 4.673c-1.577-1.047-3.138-2.07-4.714-3.115.787.296 1.561.57 2.351.873 1.571 1.008 3.157 2.037 4.741 3.063-.791-.271-1.59-.557-2.378-.821m7.142 4.833c-1.687-1.152-3.381-2.315-5.041-3.43q1.263.433 2.53.873c1.686 1.1 3.37 2.193 5.074 3.316-.859-.262-1.708-.503-2.563-.759m7.291 4.964c-1.855-1.267-3.696-2.515-5.548-3.777q1.358.415 2.723.841c1.809 1.197 3.636 2.419 5.464 3.641-.879-.234-1.763-.477-2.639-.705m7.368 5.121c-1.929-1.355-3.864-2.719-5.761-4.027q1.346.354 2.696.72c1.917 1.286 3.836 2.577 5.775 3.893-.906-.202-1.806-.391-2.71-.586m7.507 5.255c-2.058-1.446-4.098-2.868-6.15-4.306.926.205 1.851.405 2.78.616 2.004 1.365 4.027 2.757 6.053 4.153q-1.342-.237-2.683-.463m-470.74 63.202q.524-.581 1.046-1.168c.834-.01 1.67-.015 2.504-.028q-.553.543-1.108 1.079-1.22.062-2.442.117m-1.629 1.782c.341-.367.678-.741 1.016-1.111.781-.036 1.562-.067 2.341-.105q-.542.516-1.091 1.027-1.131.097-2.266.189m-1.647 1.747q.498-.521.993-1.048 1.083-.087 2.165-.179c-.351.326-.705.645-1.057.967q-1.049.133-2.101.26m-1.653 1.712c.319-.326.64-.648.958-.977q.985-.12 1.968-.244-.496.448-.995.892c-.643.111-1.286.224-1.931.329m-1.642 1.662q.44-.44.879-.884.885-.144 1.767-.295c-.309.27-.617.544-.928.812q-.858.187-1.718.367m-1.643 1.61c.266-.257.53-.52.795-.778.505-.105 1.014-.204 1.519-.312q-.419.355-.838.705-.737.195-1.476.385m-1.647 1.563q.346-.322.69-.649c.422-.107.843-.22 1.264-.329q-.359.29-.719.58c-.412.132-.822.268-1.235.398m-1.579 1.465c.17-.156.344-.307.514-.464.3-.091.601-.178.901-.272-.175.138-.352.271-.527.408-.295.112-.592.217-.888.328m-1.507 1.358.212-.192q.234-.085.469-.173-.094.073-.189.146zM533.27 135.772l-1.181-.746.091.045c.424.259.862.535 1.29.797zm6.838 4.371c-.727-.476-1.46-.961-2.175-1.422l.675.326c.811.502 1.626 1.008 2.433 1.504-.314-.141-.62-.268-.933-.408m6.898 4.509c-1.124-.733-2.254-1.475-3.376-2.207.62.283 1.249.58 1.872.865 1.056.666 2.136 1.364 3.211 2.054-.573-.242-1.137-.472-1.707-.712m7.071 4.652c-1.393-.93-2.762-1.825-4.143-2.737q1 .427 2.003.861l4.205 2.691c-.689-.272-1.379-.548-2.065-.815m6.979 4.706c-1.51-1.021-3.023-2.046-4.52-3.048.804.318 1.602.626 2.41.951 1.491.969 3.005 1.969 4.52 2.971-.803-.292-1.609-.587-2.41-.874m7.352 4.969c-1.738-1.188-3.439-2.322-5.166-3.495.856.311 1.722.641 2.583.959q2.515 1.659 5.038 3.329c-.822-.271-1.636-.529-2.455-.793m7.183 4.986c-1.795-1.251-3.594-2.507-5.365-3.725.89.293 1.774.574 2.669.875a898 898 0 0 1 5.409 3.653c-.903-.264-1.814-.546-2.713-.803m7.55 5.24c-1.971-1.379-3.902-2.704-5.865-4.07.921.268 1.846.544 2.77.82 1.906 1.294 3.814 2.591 5.731 3.901-.882-.224-1.758-.433-2.636-.651m7.446 5.305c-2.012-1.442-4.032-2.891-6.012-4.288.92.231 1.839.457 2.762.697 1.988 1.367 3.998 2.766 6.015 4.173-.922-.196-1.845-.393-2.765-.582m7.691 5.486c-2.145-1.537-4.262-3.035-6.403-4.568.942.197 1.89.41 2.834.614a2290 2290 0 0 1 6.295 4.408c-.908-.151-1.818-.309-2.726-.454m-469.993 64.042q.508-.643 1.012-1.29 1.303-.004 2.605-.019c-.362.403-.726.8-1.09 1.2q-1.262.058-2.527.109m-1.525 1.894c.335-.412.671-.82 1.004-1.236q1.219-.044 2.436-.098-.53.578-1.063 1.148-1.187.098-2.377.186m-1.532 1.858q.49-.585.978-1.176 1.135-.08 2.269-.168c-.345.364-.687.732-1.034 1.092-.736.088-1.474.169-2.213.252m-1.538 1.823c.315-.367.625-.74.938-1.109.698-.077 1.398-.15 2.095-.23q-.501.516-1.005 1.025-1.013.16-2.028.314m-1.569 1.793q.457-.518.91-1.04c.643-.096 1.285-.198 1.927-.298-.323.323-.65.638-.976.956q-.928.195-1.861.382m-1.555 1.729c.285-.313.572-.624.856-.941q.858-.165 1.713-.339-.455.439-.914.873c-.55.139-1.103.272-1.655.407m-1.555 1.683q.392-.414.781-.833.737-.176 1.472-.356c-.267.25-.531.504-.8.751-.484.146-.967.295-1.453.438m-1.538 1.621c.217-.224.43-.454.645-.679.409-.118.815-.243 1.222-.365q-.346.313-.694.625-.585.212-1.173.419m-1.52 1.539.493-.498q.443-.151.884-.306l-.509.439zm-1.452 1.434.238-.23.444-.18-.228.187zm413.452-126.117a448 448 0 0 0-2.193-1.435l.753.377c.754.472 1.521.963 2.281 1.443-.282-.131-.56-.254-.841-.385m6.889 4.543c-1.134-.746-2.274-1.501-3.407-2.246.525.247 1.067.518 1.594.767 1.177.75 2.334 1.471 3.514 2.223q-.853-.374-1.701-.744m6.962 4.645c-1.278-.865-2.557-1.731-3.817-2.571.64.283 1.268.549 1.911.836 1.308.846 2.64 1.725 3.965 2.594-.683-.282-1.378-.583-2.059-.859m7.23 4.888q-2.28-1.543-4.555-3.08 1.152.478 2.308.963c1.517.996 3.015 1.967 4.535 2.966-.77-.295-1.522-.561-2.288-.849m7.228 4.971c-1.673-1.163-3.352-2.333-5-3.46.858.328 1.733.685 2.594 1.021 1.616 1.077 3.263 2.197 4.904 3.308q-1.253-.439-2.498-.869m7.379 5.107c-1.816-1.267-3.598-2.489-5.402-3.739.869.305 1.73.594 2.604.906 1.823 1.232 3.631 2.444 5.458 3.682-.885-.281-1.778-.574-2.66-.849m7.453 5.273c-1.915-1.36-3.833-2.724-5.723-4.051.936.296 1.882.609 2.822.912 1.837 1.258 3.714 2.573 5.582 3.876-.897-.252-1.788-.491-2.681-.737m7.578 5.393c-2.026-1.453-4.029-2.875-6.035-4.3.915.254 1.822.495 2.741.757 2.026 1.408 4.039 2.798 6.071 4.215-.925-.224-1.855-.456-2.777-.672m7.689 5.558c-2.118-1.536-4.23-3.067-6.324-4.572.961.23 1.928.476 2.893.715 2.033 1.43 4.111 2.921 6.18 4.402a351 351 0 0 0-2.749-.545m7.797 5.696a1471 1471 0 0 0-6.55-4.795c.924.183 1.846.361 2.773.55 2.179 1.556 4.343 3.091 6.53 4.658-.92-.144-1.836-.277-2.753-.413m-469.276 64.778q.487-.699.97-1.403 1.333.006 2.664.003-.516.662-1.035 1.316-1.299.045-2.599.084m-1.413 2.011q.48-.674.955-1.355 1.262-.036 2.522-.08-.513.635-1.029 1.266c-.815.058-1.631.117-2.448.169m-1.424 1.974c.314-.429.624-.864.935-1.297q1.19-.076 2.378-.163c-.339.409-.682.811-1.023 1.216q-1.143.126-2.29.244m-1.444 1.932q.465-.615.927-1.237 1.104-.108 2.206-.226-.5.584-1.002 1.16c-.709.105-1.42.203-2.131.303m-1.458 1.902c.305-.392.612-.78.915-1.176.673-.093 1.346-.183 2.018-.28q-.477.546-.957 1.085-.987.188-1.976.371m-1.461 1.856q.433-.542.864-1.089.928-.17 1.854-.348c-.307.338-.611.679-.92 1.012q-.897.217-1.798.425m-1.459 1.798c.27-.327.535-.661.804-.991.551-.124 1.102-.246 1.652-.375q-.435.463-.875.922c-.525.151-1.054.296-1.581.444m-1.492 1.768q.378-.443.753-.888c.483-.133.964-.271 1.445-.406-.267.274-.538.541-.806.813-.463.161-.926.324-1.392.481m-1.451 1.672c.216-.245.435-.484.65-.731.386-.127.774-.25 1.159-.379q-.338.333-.678.665c-.376.152-.754.297-1.131.445m-1.431 1.608c.161-.177.32-.359.482-.537.286-.111.571-.227.857-.338-.164.156-.326.317-.491.473-.283.133-.564.271-.848.402m-1.364 1.466.23-.248.43-.191-.226.208q-.216.116-.434.231m405.108-135.916c-.716-.475-1.439-.961-2.146-1.425.296.151.6.313.897.464.727.46 1.47.944 2.206 1.416zm6.895 4.579-3.161-2.1c.484.234.956.451 1.442.687 1.131.727 2.255 1.446 3.388 2.177-.554-.251-1.117-.516-1.669-.764m7.049 4.752c-1.243-.848-2.492-1.704-3.719-2.529q.984.447 1.972.901c1.236.808 2.492 1.642 3.742 2.469-.669-.287-1.329-.56-1.995-.841m7.305 4.969c-1.533-1.05-3.043-2.068-4.569-3.109.793.342 1.6.704 2.398 1.051 1.491.988 2.966 1.955 4.47 2.961-.771-.308-1.532-.6-2.299-.903m7.199 4.999c-1.636-1.141-3.275-2.287-4.892-3.403.827.331 1.645.649 2.476.986 1.651 1.11 3.316 2.24 4.98 3.369-.854-.317-1.714-.643-2.564-.952m7.439 5.198c-1.791-1.262-3.558-2.492-5.334-3.733.899.333 1.796.662 2.7 1.003q2.609 1.78 5.252 3.604c-.877-.297-1.747-.584-2.618-.874m7.501 5.333c-1.918-1.367-3.832-2.73-5.732-4.074.934.314 1.884.658 2.823.982q2.823 1.95 5.661 3.92-1.379-.42-2.752-.828m7.589 5.45a1473 1473 0 0 0-5.952-4.286c.944.286 1.88.556 2.829.851 1.947 1.362 3.933 2.777 5.911 4.182-.93-.251-1.862-.504-2.788-.747m7.762 5.632c-2.117-1.543-4.219-3.063-6.322-4.587.959.255 1.927.53 2.89.795 2.083 1.476 4.148 2.929 6.248 4.431q-1.411-.326-2.816-.639m7.808 5.752c-2.171-1.61-4.345-3.225-6.484-4.791.941.214 1.878.418 2.822.64a1525 1525 0 0 1 6.439 4.656c-.928-.176-1.851-.336-2.777-.505m7.963 5.9c-2.283-1.703-4.53-3.355-6.797-5.037.951.176 1.904.36 2.858.543a1922 1922 0 0 1 6.697 4.887q-1.38-.202-2.758-.393m-468.632 65.444q.457-.753.907-1.515c.911.011 1.823.026 2.732.033-.329.479-.661.952-.992 1.427q-1.322.031-2.647.055m-1.303 2.12q.454-.73.903-1.469c.864-.017 1.728-.029 2.59-.05q-.492.694-.988 1.381c-.834.05-1.67.093-2.505.138m-1.326 2.088q.457-.707.909-1.421 1.22-.064 2.438-.134-.484.668-.972 1.331-1.186.117-2.375.224m-1.334 2.049q.45-.675.894-1.36 1.149-.103 2.293-.217c-.318.427-.635.856-.956 1.278q-1.113.154-2.231.299m-1.342 2.006c.293-.429.581-.865.871-1.298q1.071-.134 2.138-.279-.475.617-.954 1.226c-.683.122-1.37.235-2.055.351m-1.369 1.974c.288-.407.571-.821.855-1.233q.99-.164 1.977-.336c-.307.387-.62.764-.93 1.146-.633.143-1.265.288-1.902.423m-1.375 1.917q.413-.567.824-1.138.902-.193 1.799-.395-.446.54-.895 1.074-.863.234-1.728.459m-1.389 1.879c.265-.351.53-.699.792-1.054.529-.137 1.059-.271 1.586-.412-.273.321-.545.645-.82.963-.519.168-1.036.339-1.558.503m-1.373 1.808c.234-.301.464-.609.696-.913q.697-.218 1.389-.443-.38.432-.763.86-.66.252-1.322.496m-1.39 1.753q.309-.386.615-.776.567-.207 1.133-.417-.327.355-.656.707-.545.245-1.092.486m-1.358 1.655q.235-.281.469-.564.416-.176.83-.355-.256.264-.514.526c-.26.134-.524.261-.785.393m-1.284 1.527q.123-.14.245-.28.213-.106.427-.214-.122.12-.246.24-.213.128-.426.254m396.421-146.079c-.673-.448-1.354-.907-2.023-1.35.252.131.496.25.748.38.725.464 1.467.951 2.199 1.426-.307-.15-.618-.307-.924-.456m6.999 4.672c-.991-.666-1.961-1.306-2.948-1.968.479.238.955.468 1.436.707 1.025.667 2.037 1.316 3.065 1.986-.516-.239-1.038-.487-1.553-.725m7.157 4.875c-1.254-.859-2.514-1.724-3.758-2.568.666.312 1.341.638 2.01.955 1.219.805 2.455 1.632 3.685 2.449-.651-.287-1.289-.554-1.937-.836m7.276 4.991c-1.513-1.049-3.004-2.067-4.503-3.098.777.345 1.566.708 2.348 1.059 1.482.991 2.96 1.978 4.458 2.99q-1.155-.48-2.303-.951m7.206 5.032a2294 2294 0 0 0-4.777-3.336c.824.343 1.638.669 2.466 1.019 1.627 1.104 3.264 2.219 4.898 3.334-.859-.334-1.733-.692-2.587-1.017m7.512 5.301a1238 1238 0 0 0-5.257-3.726c.905.35 1.817.712 2.727 1.072 1.69 1.161 3.404 2.357 5.118 3.551-.87-.311-1.723-.594-2.588-.897m7.556 5.388c-1.906-1.364-3.8-2.711-5.696-4.062.928.33 1.864.672 2.798 1.013 1.894 1.319 3.769 2.613 5.676 3.951a388 388 0 0 0-2.778-.902m7.605 5.51c-1.964-1.433-3.935-2.874-5.87-4.27.935.304 1.867.6 2.807.912 1.935 1.365 3.896 2.767 5.857 4.165q-1.4-.409-2.794-.807m7.804 5.69c-2.119-1.557-4.206-3.069-6.308-4.601.971.28 1.957.591 2.934.881 2.053 1.468 4.107 2.935 6.182 4.431q-1.406-.362-2.808-.711m7.831 5.803a1736 1736 0 0 0-6.466-4.791c.951.24 1.897.472 2.853.722q3.201 2.314 6.434 4.67c-.943-.207-1.881-.402-2.821-.601m7.959 5.945c-2.256-1.696-4.496-3.37-6.726-5.032.967.209 1.94.432 2.911.649 2.197 1.606 4.417 3.245 6.644 4.892-.943-.168-1.89-.348-2.829-.509m8.096 6.11c-2.334-1.77-4.647-3.512-6.96-5.252.951.165 1.905.34 2.858.514 2.305 1.704 4.59 3.385 6.911 5.113-.937-.127-1.874-.255-2.809-.375m-468.01 66.042q.426-.81.848-1.626 1.397.028 2.789.046a330 330 0 0 1-.93 1.539q-1.353.026-2.707.041m-1.194 2.225c.286-.526.574-1.049.857-1.58q1.323-.013 2.644-.037c-.307.5-.613 1.002-.925 1.497q-1.286.064-2.576.12m-1.208 2.192q.428-.763.851-1.533 1.255-.051 2.507-.112-.461.73-.927 1.452c-.808.069-1.62.129-2.431.193m-1.223 2.162c.283-.49.562-.989.841-1.485q1.188-.09 2.372-.188-.46.7-.926 1.394-1.141.145-2.287.279m-1.246 2.117q.419-.704.834-1.417c.746-.085 1.488-.179 2.23-.272q-.459.676-.921 1.344-1.07.178-2.143.345m-1.263 2.079c.279-.453.559-.903.836-1.361.686-.105 1.373-.209 2.056-.321a152 152 0 0 1-.895 1.276q-.996.207-1.997.406m-1.276 2.037q.408-.639.813-1.284.952-.19 1.902-.386c-.289.401-.577.805-.869 1.202q-.92.24-1.846.468m-1.278 1.983c.259-.394.514-.796.771-1.195q.868-.209 1.732-.425-.423.565-.85 1.125-.825.25-1.653.495m-1.31 1.943q.37-.544.737-1.095c.521-.151 1.038-.31 1.557-.466-.268.346-.542.684-.812 1.026q-.74.272-1.482.535m-1.307 1.873c.229-.325.461-.646.689-.973.441-.153.886-.301 1.326-.458q-.366.45-.734.897-.639.27-1.281.534m-1.3 1.807q.296-.404.593-.809c.365-.147.727-.303 1.091-.454-.209.248-.414.501-.623.747q-.53.26-1.061.516m-1.269 1.702c.149-.196.295-.398.444-.595q.394-.184.787-.37-.235.272-.472.539-.379.215-.759.426m-1.245 1.596.231-.294q.196-.103.392-.207l-.245.264c-.125.081-.252.156-.378.237m387.441-156.561c-.555-.369-1.114-.747-1.668-1.117.234.124.465.242.699.367.592.383 1.197.781 1.792 1.168-.271-.136-.552-.283-.823-.418m7.265 4.889c-.962-.656-1.91-1.297-2.862-1.94q.695.352 1.391.709c.988.647 1.95 1.262 2.944 1.918-.496-.236-.979-.454-1.473-.687m7.144 4.894c-1.282-.876-2.568-1.761-3.848-2.636.664.319 1.349.669 2.016.993 1.248.829 2.506 1.675 3.758 2.51-.644-.293-1.285-.579-1.926-.867m7.193 4.984c-1.411-.988-2.824-1.98-4.215-2.943.726.332 1.435.638 2.165.975 1.445.974 2.906 1.971 4.37 2.971-.771-.331-1.553-.677-2.32-1.003m7.394 5.177c-1.607-1.131-3.199-2.239-4.8-3.36.83.356 1.658.713 2.492 1.077 1.595 1.09 3.179 2.167 4.781 3.268-.828-.334-1.65-.658-2.473-.985m7.463 5.316c-1.751-1.255-3.505-2.514-5.233-3.739.902.364 1.824.757 2.731 1.128 1.688 1.17 3.401 2.373 5.11 3.571-.875-.328-1.739-.641-2.608-.96m7.571 5.428c-1.878-1.356-3.73-2.679-5.591-4.013.908.34 1.801.654 2.714 1.002 1.878 1.318 3.751 2.63 5.648 3.973-.923-.319-1.853-.651-2.771-.962m7.673 5.59c-1.971-1.44-3.938-2.876-5.89-4.29q1.418.487 2.846.987c1.927 1.369 3.866 2.754 5.81 4.146-.928-.292-1.843-.56-2.766-.843m7.782 5.723c-2.079-1.54-4.15-3.068-6.205-4.573.972.302 1.954.623 2.931.935 2.021 1.453 4.064 2.937 6.113 4.427-.948-.266-1.895-.532-2.839-.789m7.909 5.868c-2.166-1.614-4.315-3.204-6.466-4.798.961.266 1.919.526 2.884.802 2.142 1.558 4.268 3.095 6.426 4.675-.951-.234-1.896-.454-2.844-.679m7.963 5.995c-2.23-1.689-4.467-3.386-6.662-5.03.969.233 1.946.486 2.919.729 2.178 1.602 4.39 3.248 6.598 4.892-.952-.198-1.906-.402-2.855-.591m8.143 6.165c-2.331-1.775-4.631-3.508-6.942-5.258q1.441.293 2.887.597c2.277 1.696 4.553 3.387 6.854 5.113-.935-.156-1.866-.303-2.799-.452m8.186 6.286a1965 1965 0 0 0-7.111-5.461c.942.154 1.88.297 2.825.458q3.51 2.638 7.061 5.329c-.927-.116-1.85-.217-2.775-.326m-467.455 66.552c.264-.578.527-1.154.788-1.736q1.417.04 2.833.071-.428.83-.86 1.648-1.379.014-2.761.017m-1.08 2.337q.396-.844.786-1.693 1.357-.003 2.709-.017-.433.806-.871 1.605c-.873.038-1.748.076-2.624.105m-1.092 2.294c.264-.542.521-1.095.781-1.642q1.292-.043 2.579-.098c-.29.526-.585 1.043-.879 1.563q-1.238.094-2.481.177m-1.123 2.264q.399-.795.793-1.598 1.217-.077 2.43-.166-.433.76-.873 1.515-1.173.128-2.35.249m-1.144 2.235c.269-.517.539-1.029.804-1.551q1.143-.118 2.283-.241c-.285.485-.569.975-.858 1.456-.742.115-1.483.23-2.229.336m-1.147 2.178q.394-.735.784-1.478 1.078-.151 2.15-.316-.43.708-.865 1.407c-.687.133-1.379.259-2.069.387m-1.169 2.148c.261-.467.515-.946.772-1.418.666-.122 1.334-.241 1.999-.368-.282.448-.568.887-.853 1.329-.639.154-1.276.31-1.918.457m-1.194 2.094q.381-.66.758-1.329c.618-.14 1.233-.288 1.848-.435q-.421.64-.845 1.271c-.585.169-1.174.33-1.761.493m-1.215 2.061c.252-.42.507-.835.755-1.259q.83-.225 1.656-.457-.395.584-.794 1.163c-.538.185-1.075.374-1.617.553m-1.209 1.984q.352-.563.7-1.134.744-.243 1.484-.497c-.254.361-.507.724-.764 1.08-.47.189-.946.367-1.42.551m-1.226 1.944c.217-.336.428-.68.643-1.019q.643-.246 1.284-.497-.35.473-.702.941c-.408.192-.813.389-1.225.575m-1.227 1.848q.282-.42.562-.844c.349-.155.7-.305 1.046-.463-.204.266-.412.526-.618.788q-.494.262-.99.519m-1.219 1.781c.149-.213.299-.422.448-.637.26-.133.517-.272.776-.408-.162.201-.328.396-.492.594q-.365.228-.732.451m-1.12 1.589q.107-.15.213-.302l.385-.224c-.074.087-.147.178-.22.265zm378.476-167.045-1.681-1.127.603.324c.566.369 1.138.747 1.705 1.116-.212-.108-.417-.206-.627-.313m7.128 4.847c-.952-.654-1.911-1.317-2.853-1.957.481.247.974.513 1.456.763.942.622 1.893 1.257 2.846 1.894-.486-.237-.966-.465-1.449-.7m7.204 4.945c-1.253-.867-2.479-1.699-3.724-2.557.59.29 1.16.554 1.752.848 1.293.867 2.581 1.726 3.879 2.599-.635-.296-1.276-.599-1.907-.89m7.123 4.986c-1.362-.956-2.73-1.92-4.08-2.861.742.348 1.48.687 2.226 1.04 1.37.932 2.762 1.892 4.148 2.844-.762-.337-1.536-.692-2.294-1.023m7.523 5.301c-1.603-1.14-3.188-2.256-4.774-3.374.833.369 1.679.757 2.517 1.133 1.557 1.073 3.105 2.132 4.676 3.224-.814-.339-1.609-.65-2.419-.983m7.475 5.348a2164 2164 0 0 0-5.234-3.745c.888.371 1.784.753 2.677 1.131 1.722 1.2 3.455 2.417 5.187 3.634q-1.318-.517-2.63-1.02m7.518 5.437a1220 1220 0 0 0-5.412-3.931c.912.355 1.814.695 2.732 1.059 1.809 1.278 3.64 2.585 5.475 3.897-.929-.336-1.872-.697-2.795-1.025m7.815 5.699c-1.989-1.46-3.951-2.882-5.926-4.322.955.345 1.922.708 2.884 1.062 1.935 1.385 3.856 2.748 5.805 4.151-.928-.309-1.84-.591-2.763-.891m7.745 5.742c-2.046-1.523-4.095-3.051-6.113-4.538.96.316 1.919.632 2.885.958 2.013 1.456 4.057 2.952 6.097 4.444-.956-.288-1.917-.585-2.869-.864m7.947 5.927a2258 2258 0 0 0-6.418-4.793c.97.29 1.941.58 2.917.879 2.103 1.538 4.208 3.08 6.335 4.65-.95-.255-1.889-.49-2.834-.736m8.002 6.043a2140 2140 0 0 0-6.668-5.036c.976.258 1.96.531 2.941.798q3.288 2.433 6.61 4.907c-.962-.224-1.925-.454-2.883-.669m8.133 6.204c-2.3-1.764-4.596-3.522-6.865-5.246q1.454.331 2.915.676c2.236 1.672 4.503 3.384 6.771 5.097-.944-.185-1.88-.35-2.821-.527m8.246 6.331c-2.388-1.843-4.747-3.646-7.115-5.463.959.184 1.916.365 2.878.558 2.355 1.778 4.692 3.533 7.069 5.341q-1.418-.224-2.832-.436m8.301 6.467c-2.434-1.904-4.873-3.815-7.268-5.668.955.145 1.915.309 2.873.462 2.374 1.811 4.783 3.667 7.194 5.525-.934-.108-1.868-.217-2.799-.319m-466.928 66.996q.358-.917.71-1.841c.961.035 1.923.073 2.882.104-.265.59-.534 1.172-.801 1.756-.929-.002-1.86-.013-2.791-.019m-.969 2.441q.36-.896.715-1.801c.918.007 1.836.017 2.752.019q-.399.86-.804 1.711-1.33.04-2.663.071m-.996 2.41q.368-.876.73-1.76 1.312-.03 2.619-.07a185 185 0 0 1-.803 1.67c-.848.056-1.695.112-2.546.16m-1.007 2.363c.245-.567.492-1.132.734-1.704q1.247-.07 2.488-.152c-.268.544-.536 1.09-.808 1.628-.803.081-1.609.154-2.414.228m-1.028 2.335q.37-.826.735-1.662c.786-.071 1.573-.139 2.356-.216q-.406.79-.816 1.574-1.135.156-2.275.304m-1.044 2.29q.367-.794.728-1.597c.745-.094 1.486-.196 2.228-.298-.271.513-.548 1.015-.822 1.521q-1.064.194-2.134.374m-1.074 2.25q.371-.766.737-1.54 1.04-.17 2.074-.353-.403.733-.811 1.459-.998.221-2 .434m-1.092 2.209c.247-.489.495-.974.738-1.469.642-.134 1.282-.276 1.922-.416-.264.463-.526.93-.793 1.388q-.93.254-1.867.497m-1.102 2.158q.36-.691.715-1.388.888-.225 1.77-.46-.388.659-.783 1.309-.85.273-1.702.539m-1.119 2.106c.231-.424.455-.856.683-1.285.543-.166 1.082-.34 1.621-.513-.255.413-.516.819-.774 1.228q-.762.29-1.53.57m-1.149 2.057q.336-.592.667-1.19c.477-.171.956-.337 1.43-.514-.24.373-.486.738-.729 1.106q-.683.302-1.368.598m-1.149 1.984c.206-.349.416-.693.62-1.046.412-.172.82-.352 1.229-.53q-.337.502-.677.999c-.388.198-.782.384-1.172.577m-1.15 1.919q.27-.443.54-.891.5-.242.997-.487c-.191.271-.379.546-.572.813-.322.188-.641.381-.965.565m-1.128 1.793q.204-.32.405-.643c.236-.131.476-.256.712-.389l-.441.593c-.224.149-.45.292-.676.439m-1.118 1.704.227-.34q.182-.117.364-.237l-.245.31q-.173.133-.346.267M465.377 96.463c-.62-.423-1.221-.821-1.836-1.238l.394.216 1.968 1.29zm6.963 4.782c-.952-.652-1.912-1.315-2.863-1.967.437.23.868.449 1.307.68.974.649 1.966 1.322 2.949 1.982-.463-.231-.931-.467-1.393-.695m7.121 4.928a797 797 0 0 0-3.354-2.341c.578.29 1.146.567 1.727.861 1.21.817 2.405 1.614 3.626 2.445-.661-.314-1.341-.655-1.999-.965m7.391 5.185a1983 1983 0 0 0-4.158-2.917c.741.355 1.488.718 2.233 1.079 1.335.914 2.681 1.842 4.019 2.76-.707-.32-1.39-.607-2.094-.922m7.425 5.282c-1.582-1.135-3.17-2.279-4.729-3.384.843.384 1.713.805 2.56 1.196 1.518 1.052 3.059 2.136 4.6 3.218-.815-.35-1.621-.688-2.431-1.03m7.531 5.393c-1.729-1.247-3.426-2.454-5.142-3.684.856.368 1.693.707 2.554 1.083 1.751 1.229 3.485 2.436 5.249 3.683-.885-.359-1.781-.731-2.661-1.082m7.571 5.52a1631 1631 0 0 0-5.429-3.958q1.383.558 2.775 1.128c1.773 1.261 3.571 2.552 5.366 3.841-.908-.344-1.81-.676-2.712-1.011m7.772 5.708a1566 1566 0 0 0-5.876-4.325c.963.362 1.949.761 2.919 1.132 1.905 1.371 3.817 2.749 5.746 4.149-.935-.327-1.859-.638-2.789-.956m7.797 5.787a3032 3032 0 0 0-6.087-4.518c.952.331 1.889.637 2.847.976q3.056 2.223 6.137 4.477c-.964-.309-1.939-.635-2.897-.935m7.955 5.979c-2.122-1.605-4.251-3.217-6.341-4.781.979.311 1.964.632 2.948.952 2.052 1.509 4.14 3.065 6.223 4.614-.951-.274-1.884-.52-2.83-.785m8.058 6.092c-2.236-1.701-4.437-3.357-6.651-5.029q1.467.417 2.943.851c2.2 1.635 4.388 3.255 6.611 4.919-.968-.247-1.94-.503-2.903-.741m8.13 6.239c-2.286-1.76-4.572-3.52-6.828-5.24q1.463.368 2.934.749c2.226 1.672 4.48 3.38 6.735 5.089-.952-.21-1.893-.396-2.841-.598m8.23 6.356a2174 2174 0 0 0-7.042-5.444q1.455.314 2.916.641 3.48 2.64 7.003 5.337c-.958-.176-1.922-.366-2.877-.534m8.377 6.529a2822 2822 0 0 0-7.273-5.669c.965.174 1.936.361 2.904.543 2.392 1.832 4.788 3.671 7.203 5.533q-1.419-.209-2.834-.407m8.439 6.65c-2.482-1.966-4.97-3.937-7.416-5.853.95.134 1.9.267 2.852.409 2.422 1.872 4.889 3.804 7.351 5.728q-1.395-.147-2.787-.284m-8.624-6.026c2.477 1.939 4.99 3.927 7.503 5.911-85.979-8.218-164.598 11.793-243.126 31.779-47.686 12.137-95.339 24.262-144.584 30.048 42.33-7.2 83.198-19.565 124.304-32.004 80.185-24.265 161.282-48.795 255.903-35.734m-8.373-6.528c2.433 1.888 4.888 3.805 7.35 5.73-94.245-12.742-175.089 11.725-255.032 35.916-43.343 13.116-86.421 26.146-131.224 33.121 38.915-8.251 76.248-21.544 113.937-34.968 80.411-28.643 162.447-57.87 264.969-39.799m-70.404-52.332q2.494 1.761 5.021 3.564c-161.692-67.464-228.636 4.024-291.493 71.197-18.124 19.368-35.91 38.37-55.54 53.563m-37.067 3.915q.32-.967.635-1.943 1.462.066 2.923.121-.359.935-.724 1.86a385 385 0 0 1-2.834-.038m-.863 2.542c.218-.634.437-1.265.651-1.904q1.398.026 2.792.04c-.241.609-.482 1.221-.728 1.823-.903.019-1.81.029-2.715.041m-.882 2.511q.333-.928.661-1.866c.889-.01 1.78-.018 2.666-.035q-.365.892-.735 1.774-1.294.069-2.592.127m-.897 2.473q.333-.903.662-1.817 1.276-.057 2.55-.124-.374.871-.752 1.733-1.228.11-2.46.208m-.919 2.432c.226-.584.446-1.176.667-1.767q1.213-.093 2.42-.2-.379.852-.762 1.697c-.772.095-1.549.181-2.325.27m-.95 2.405c.229-.573.459-1.145.685-1.725.76-.086 1.52-.17 2.277-.262-.249.544-.498 1.089-.751 1.626-.736.124-1.471.247-2.211.361m-.96 2.344c.229-.549.459-1.095.684-1.65q1.075-.165 2.146-.344c-.252.529-.501 1.061-.757 1.583-.688.142-1.381.276-2.073.411m-.987 2.323q.345-.796.685-1.602c.67-.13 1.34-.256 2.007-.392q-.376.757-.757 1.506c-.644.165-1.287.332-1.935.488m-.998 2.252c.226-.497.446-1.005.669-1.508q.942-.225 1.877-.464c-.253.491-.513.972-.771 1.456-.588.178-1.183.345-1.775.516m-1.037 2.229q.34-.718.676-1.444.857-.244 1.71-.496-.368.682-.74 1.356-.82.297-1.646.584m-1.044 2.154c.22-.446.444-.887.66-1.339q.776-.26 1.544-.531c-.237.422-.471.849-.712 1.266q-.744.307-1.492.604m-1.059 2.108c.208-.404.414-.814.62-1.222.462-.182.92-.372 1.38-.559q-.341.582-.687 1.16-.654.314-1.313.621m-1.074 2.037c.194-.359.383-.726.574-1.088.393-.18.79-.353 1.182-.537-.21.341-.423.676-.636 1.014q-.559.308-1.12.611m-1.084 1.956q.253-.447.504-.899.493-.26.981-.528c-.193.299-.392.588-.588.883-.296.186-.599.361-.897.544m-1.075 1.87c.138-.234.28-.461.416-.697q.347-.209.691-.419-.217.316-.435.632c-.225.159-.446.326-.672.484m-1.003 1.68c.066-.107.13-.219.195-.327q.17-.113.337-.226-.104.149-.21.296zM585.46 183.85c-.918-.057-1.835-.12-2.752-.172-2.569-2.048-5.091-4.033-7.63-6.041.933.093 1.866.184 2.802.285 2.522 1.97 5.029 3.921 7.58 5.928m3.803.251q-1.369-.097-2.738-.184c-2.519-1.985-5.002-3.921-7.497-5.873.943.105 1.888.223 2.832.334 2.459 1.896 4.918 3.793 7.403 5.723m3.837.291q-1.369-.108-2.738-.207-3.678-2.86-7.316-5.667c.938.113 1.876.225 2.817.346 2.394 1.818 4.816 3.674 7.237 5.528m3.874.333c-.92-.083-1.841-.17-2.759-.247-2.378-1.823-4.768-3.663-7.119-5.45q1.409.183 2.82.377c2.328 1.74 4.702 3.542 7.058 5.32m3.9.362q-1.374-.135-2.746-.259c-2.333-1.761-4.673-3.535-6.978-5.257.938.132 1.879.28 2.818.419 2.289 1.681 4.588 3.376 6.906 5.097m3.896.401c-.897-.097-1.794-.186-2.691-.277-2.291-1.702-4.55-3.361-6.813-5.026.937.142 1.873.279 2.812.428 2.204 1.588 4.46 3.249 6.692 4.875m3.968.452c-.914-.108-1.829-.221-2.743-.323-2.169-1.582-4.38-3.224-6.524-4.772q1.377.225 2.755.46c2.153 1.518 4.333 3.079 6.512 4.635m3.986.484q-1.359-.173-2.718-.335c-2.12-1.518-4.263-3.066-6.358-4.548.918.16 1.84.333 2.76.499a1240 1240 0 0 1 6.316 4.384m4.023.529c-.9-.124-1.8-.239-2.7-.356-2.054-1.438-4.11-2.879-6.14-4.283.901.167 1.8.325 2.703.498 2.042 1.375 4.072 2.732 6.137 4.141m4.069.585c-.901-.133-1.801-.269-2.701-.395-1.983-1.356-3.951-2.69-5.912-4.012q1.35.266 2.704.54c1.972 1.293 3.916 2.543 5.909 3.867m4.034.612q-1.308-.207-2.614-.405c-1.915-1.274-3.798-2.502-5.692-3.746.895.186 1.794.386 2.69.578 1.871 1.191 3.727 2.356 5.616 3.573m4.046.652c-.832-.14-1.662-.268-2.493-.402-1.823-1.177-3.603-2.289-5.409-3.44.862.189 1.722.369 2.586.564 1.766 1.084 3.534 2.17 5.316 3.278m4.105.718a307 307 0 0 0-2.449-.43c-1.698-1.061-3.365-2.074-5.051-3.114q1.272.292 2.546.597c1.642.966 3.298 1.958 4.954 2.947m4.103.755c-.788-.15-1.577-.304-2.364-.448-1.564-.94-3.113-1.855-4.665-2.777.826.202 1.657.42 2.485.627 1.503.845 3.029 1.731 4.544 2.598m4.084.785c-.729-.146-1.457-.281-2.186-.422q-2.1-1.208-4.186-2.392c.745.19 1.49.378 2.237.574 1.37.731 2.757 1.492 4.135 2.24m4.132.856q-1.01-.211-2.017-.418c-1.2-.654-2.405-1.32-3.598-1.963q.952.255 1.904.514c1.236.619 2.468 1.235 3.711 1.867m3.991.866c-.556-.124-1.113-.252-1.67-.373-.944-.485-1.899-.99-2.84-1.467.478.134.956.274 1.434.411 1.026.477 2.046.942 3.076 1.429m3.643.814c-.295-.069-.591-.132-.887-.2-.608-.291-1.224-.595-1.83-.882.224.067.448.139.672.206zm-540.55 45.674a402 402 0 0 1-3.084-.209c6.571-21.174 11.405-45.283 16.327-69.856 9.576-47.812 19.502-97.37 43.309-130.263 34.901-48.22 99.734-60.664 237.175 20.472-131.839-73.826-194.585-57.89-229.721-8.972-22.627 31.502-33.779 76.656-44.563 120.323-5.965 24.152-11.82 47.844-19.443 68.505m3.667.232c-1.015-.06-2.031-.128-3.047-.193 7.588-20.647 13.43-44.283 19.38-68.377 10.768-43.602 21.904-88.69 44.458-120.091C213.015.505 278.609-14.684 419.242 67.624 283.805-7.462 220.209 11.607 183.67 62.898c-21.181 29.732-33.246 70.271-44.944 109.574-7.046 23.676-13.96 46.902-22.656 67.03m3.647.191a435 435 0 0 1-3.006-.157c8.648-20.105 15.541-43.262 22.565-66.863 11.682-39.252 23.731-79.737 44.849-109.38C221.726 10.511 288.173-7.94 432.71 75.968 292.825-.85 228.281 22.03 190.098 76.108c-19.499 27.615-32.104 63.345-44.359 98.085-8.179 23.186-16.206 45.924-26.022 65.5m3.631.17q-1.485-.063-2.973-.136c9.757-19.547 17.754-42.203 25.903-65.301 12.241-34.7 24.831-70.388 44.274-97.925 39.09-55.362 105.953-77.878 253.661 6.593l.661.434c-144.285-78.043-209.49-50.332-249.482 6.86-17.491 25.013-30.148 55.653-42.493 85.541-9.369 22.681-18.56 44.924-29.551 63.934m3.606.147c-.974-.036-1.95-.079-2.926-.12 10.917-18.973 20.069-41.117 29.395-63.695 12.332-29.855 24.974-60.46 42.426-85.418 40.45-57.846 106.846-85.376 255.412-3.055.653.433 1.288.841 1.946 1.278-147.282-77.203-212.317-43.17-254.169 17.314-15.016 21.702-27.041 46.795-38.816 71.369-10.62 22.164-21.039 43.902-33.268 62.327m3.59.109q-1.435-.038-2.872-.086c12.135-18.382 22.498-40.007 33.062-62.053 11.764-24.55 23.777-49.62 38.763-71.278 42.181-60.96 108.012-94.951 258.507-14.482.963.646 1.934 1.302 2.898 1.948-192.388-97.213-244.666-2.575-293.167 85.283-11.942 21.633-23.659 42.846-37.191 60.668m3.577.091q-1.411-.03-2.824-.068c13.418-17.774 25.064-38.86 36.932-60.358C216.983 91.466 269.578-3.699 465.34 97.157c1.047.712 2.117 1.454 3.179 2.185C283.91 9.8 227.74 98.611 175.461 181.243c-13.341 21.087-26.429 41.768-41.34 58.967m3.547.066q-1.375-.023-2.751-.051c14.773-17.145 27.771-37.681 41.017-58.617C228.444 98.612 284.928 9.42 472.269 101.92c1.381.951 2.743 1.877 4.133 2.84-177.03-82.148-237.013.834-292.972 78.297-14.83 20.531-29.381 40.664-45.762 57.219m3.541.036q-1.34-.006-2.68-.022c16.212-16.496 30.645-36.473 45.354-56.835 56.154-77.732 116.35-161.06 295.475-76.626 1.554 1.083 3.127 2.193 4.696 3.296-169.317-74.71-232.889 2.476-292.371 74.771-16.418 19.955-32.528 39.529-50.474 55.416m7.019.011q-1.238.004-2.476.006c19.378-15.129 36.98-33.938 54.912-53.101 63.052-67.381 130.234-139.094 293.477-69.95a3455 3455 0 0 1 5.345 3.826c-154.123-60.389-224.202 5.473-290.259 67.569-19.961 18.764-39.557 37.179-60.999 51.65m3.488-.033c-.788.011-1.576.024-2.365.029 21.146-14.408 40.52-32.611 60.249-51.158 66.257-62.285 136.575-128.354 292.055-66.499 1.879 1.358 3.793 2.762 5.701 4.158-146.654-53.556-219.649 6.719-288.714 63.798-21.954 18.144-43.515 35.957-66.926 49.672m3.464-.046c-.727.013-1.455.019-2.182.03 23.049-13.655 44.328-31.24 65.991-49.143 69.256-57.237 142.459-117.712 290.236-62.947 2.013 1.472 4.02 2.936 6.055 4.435-139.245-46.944-214.836 7.866-286.68 59.989-24.136 17.51-47.849 34.712-73.42 47.636m3.461-.079q-1.002.023-2.005.046c25.133-12.87 48.504-29.818 72.281-47.068 72.041-52.265 147.857-107.232 288.071-59.256 2.064 1.526 4.147 3.075 6.233 4.63-131.842-40.531-209.669 8.906-284.01 56.135-26.533 16.856-52.623 33.424-80.57 45.513m3.442-.095q-.878.03-1.758.056c27.419-12.045 53.082-28.346 79.173-44.921 74.545-47.358 152.596-96.947 285.275-55.536 2.166 1.617 4.354 3.264 6.55 4.92-124.493-34.4-204.181 9.748-280.701 52.166-29.199 16.186-57.941 32.113-88.539 43.315m3.422-.111c-.468.017-.938.029-1.407.046 29.943-11.176 58.142-26.803 86.782-42.679 76.728-42.534 156.643-86.809 281.848-51.675 2.242 1.69 4.477 3.373 6.739 5.089-117.115-28.524-198.145 10.494-276.438 48.187-32.198 15.501-63.932 30.776-97.524 41.032m3.439-.141-.971.042c32.765-10.253 63.805-25.192 95.286-40.348 78.512-37.798 159.788-76.915 277.52-47.774 2.289 1.744 4.62 3.544 6.944 5.332-109.668-22.935-191.467 11.043-271.028 44.111-35.597 14.796-70.748 29.406-107.751 38.637m3.388-.15-.265.014c35.936-9.271 70.173-23.497 104.832-37.902 79.785-33.161 161.822-67.238 272.012-43.798 2.376 1.827 4.757 3.661 7.159 5.523-102.086-17.664-183.892 11.463-264.076 40.025-39.534 14.082-78.676 28.024-119.662 36.138m182.23-28.423c-53.251 11.282-106.893 22.645-162.024 27.11 46.733-6.081 92.092-17.622 137.481-29.176 78.775-20.048 157.644-40.113 243.936-31.657 2.564 2.025 5.114 4.032 7.712 6.102-77.016-4.175-151.67 11.639-227.105 27.621m-192.371 29.463.914-.03-.328.099q-.49.039-.982.075zm-3.428.095c.462-.012.927-.019 1.389-.032q-.33.121-.661.241l-1.427.094zm-3.438.079q.875-.018 1.751-.04c-.312.133-.625.261-.937.392-.569.035-1.141.063-1.711.096q.45-.222.897-.448m-3.449.047 1.981-.025-1.04.516q-.985.058-1.971.109.515-.298 1.03-.6m-3.472.034a398 398 0 0 0 2.186-.017q-.555.324-1.112.644-1.075.05-2.152.097.54-.36 1.078-.724m-3.486.009q1.179-.001 2.356-.006-.589.39-1.178.776c-.762.03-1.525.054-2.287.081q.555-.425 1.109-.851m-3.495-.017c.821.006 1.643.017 2.464.02-.385.294-.768.594-1.153.885-.81.028-1.62.057-2.432.078q.562-.488 1.121-.983m-3.524-.032q1.298.017 2.594.024c-.39.342-.781.676-1.172 1.014q-1.256.031-2.511.056.546-.545 1.089-1.094m-3.523-.067q1.333.027 2.665.05-.564.57-1.131 1.131-1.301.02-2.605.035.538-.604 1.071-1.216m-3.556-.087q1.377.04 2.751.072-.547.624-1.096 1.24-1.336.018-2.674.025c.342-.442.68-.891 1.019-1.337m-3.567-.107c.939.033 1.877.058 2.815.084q-.522.683-1.049 1.359-1.367.003-2.735-.002.485-.718.969-1.441m-3.584-.145q1.434.062 2.866.118-.491.736-.987 1.468-1.395-.012-2.792-.029.46-.775.913-1.557m-3.608-.164q1.464.073 2.927.136-.463.793-.933 1.575-1.416-.015-2.836-.042.423-.832.842-1.669m-3.623-.19q1.484.082 2.964.156-.427.847-.858 1.686-1.44-.03-2.884-.072.391-.88.778-1.77m-3.644-.226c1 .064 2.001.132 3 .192q-.39.898-.784 1.788c-.973-.029-1.948-.067-2.922-.103q.355-.934.706-1.877m-3.671-.248q1.527.11 3.051.208c-.236.636-.477 1.264-.718 1.894a422 422 0 0 1-2.957-.12q.314-.987.624-1.982M0 218.22c37.136 12.247 73.219 18.829 108.515 21.423q-.314 1.002-.635 1.997c-34.633-1.623-70.37-7.614-107.715-19.93l-.165.613c37.333 12.312 73.056 18.312 107.674 19.949q-.317.986-.641 1.961c-33.944-.645-69.318-6.036-106.868-18.419l-.165.613c37.533 12.378 72.89 17.779 106.815 18.444q-.326.967-.658 1.924c-33.24.349-68.237-4.427-105.992-16.878L0 230.53c37.736 12.444 72.715 17.237 105.937 16.911-.222.635-.45 1.261-.677 1.89-32.52 1.365-67.133-2.792-105.095-15.312l-.165.613c37.936 12.511 72.527 16.688 105.025 15.355q-.335.922-.677 1.833C72.56 254.223 38.343 250.713.165 238.122l-.165.613c38.143 12.58 72.334 16.112 104.098 13.751q-.339.903-.684 1.797c-31.04 3.459-64.854.606-103.249-12.056l-.165.612c38.35 12.648 72.132 15.534 103.144 12.125q-.344.878-.693 1.745c-30.277 4.537-63.672 2.355-102.286-10.38l-.165.613c38.56 12.717 71.922 14.938 102.17 10.462-.234.569-.471 1.128-.709 1.691-29.495 5.637-62.46 4.144-101.296-8.664l-.165.613c38.769 12.786 71.697 14.329 101.16 8.771-.234.549-.474 1.091-.712 1.633-28.698 6.758-61.223 5.969-100.283-6.912l-.165.613c38.977 12.854 71.456 13.703 100.119 7.042q-.35.789-.706 1.567c-27.883 7.903-59.957 7.838-99.248-5.12l-.165.613c39.182 12.922 71.203 13.072 99.046 5.293-.231.494-.459.992-.693 1.481C71.3 275.1 39.692 275.776.165 262.741l-.165.613c39.393 12.992 70.94 12.414 97.95 3.493q-.35.714-.704 1.419c-26.198 10.261-57.326 11.689-97.08-1.422l-.166.612c39.596 13.059 70.657 11.754 96.812 1.68-.226.442-.459.872-.688 1.309-25.33 11.482-55.963 13.693-95.959.503l-.165.613c39.79 13.122 70.343 11.072 95.625-.168q-.326.605-.658 1.203C70.527 285.318 40.4 288.32.165 275.05l-.165.613c39.974 13.183 70 10.379 94.39-2.034-.199.351-.394.708-.595 1.056-23.532 13.997-53.141 17.82-93.63 4.468l-.165.613c40.132 13.235 69.617 9.687 93.09-3.897-.173.29-.343.582-.518.868C69.97 292.029 40.9 296.691.165 283.257L0 283.87c40.264 13.279 69.18 8.984 91.718-5.76q-.21.332-.42.66C69.65 295.367 41.136 300.872.166 287.36l-.165.613c40.349 13.306 68.665 8.278 90.248-7.592l-.226.332C69.342 298.67 41.398 305.061.165 291.462l-.165.613c40.043 13.206 67.614 7.684 88.172-8.942-19.647 18.949-46.886 25.994-88.007 12.433l-.165.612c39.199 12.927 65.851 7.269 85.34-9.543-18.57 19.144-44.896 26.318-85.175 13.034l-.165.613c38.326 12.639 64.082 6.89 82.56-10.02C65.005 309.51 39.57 316.768.164 303.772l-.165.613c43.476 14.338 70.053 4.234 87.794-19.396a87 87 0 0 0 2.975-3.517c1.057-1.1 2.099-2.226 3.112-3.396a93 93 0 0 0 3.198-3.267 98 98 0 0 0 3.414-3.213 105 105 0 0 0 3.482-3.037 111 111 0 0 0 3.732-3 121 121 0 0 0 3.803-2.797 128 128 0 0 0 4.057-2.742 143 143 0 0 0 4.256-2.607 157 157 0 0 0 4.298-2.385 172 172 0 0 0 4.584-2.3q2.439-1.05 4.845-2.167 2.52-.961 5.013-1.984a246 246 0 0 0 5.141-1.786 280 280 0 0 0 5.372-1.62q2.804-.696 5.59-1.438 2.923-.603 5.83-1.253 2.94-.494 5.865-1.028 3.166-.412 6.318-.865 3.22-.304 6.432-.645c59.909-3.57 117.962-15.866 175.56-28.068 75.684-16.036 150.582-31.904 227.854-27.563 42.943 34.238 90.157 74.032 142.115 120.017l.36-.497c-51.675-45.735-98.656-85.337-141.423-119.454q1.38.08 2.763.172c41.832 32.958 87.77 71.296 138.3 115.678l.36-.5c-50.24-44.128-95.941-82.275-137.594-115.111q1.384.095 2.769.199c40.718 31.669 85.375 68.544 134.466 111.309l.358-.502c-48.787-42.5-93.197-79.182-133.724-110.724.918.07 1.835.133 2.753.209 39.6 30.371 82.973 65.78 130.615 106.914l.355-.502c-47.323-40.858-90.438-76.07-129.835-106.311q1.389.119 2.779.248c38.464 29.058 80.539 62.99 126.702 102.463l.353-.504c-45.835-39.193-87.648-72.929-125.9-101.856q1.395.135 2.792.278c37.316 27.733 78.094 60.191 122.756 97.982l.35-.508c-44.311-37.493-84.813-69.756-121.901-97.35.901.094 1.802.181 2.704.281 36.195 26.416 75.651 57.343 118.848 93.474l.348-.511c-42.835-35.827-81.993-66.538-117.949-92.817q1.381.157 2.764.324c35.037 25.072 73.167 54.487 114.838 88.903l.346-.513c-41.302-34.112-79.125-63.307-113.915-88.242.924.114 1.848.238 2.772.359 33.872 23.719 70.667 51.611 110.8 84.295l.341-.516c-39.742-32.366-76.21-60.028-109.818-83.606.914.123 1.828.242 2.744.37 32.701 22.355 68.155 48.716 106.734 79.649l.339-.518c-38.165-30.602-73.268-56.719-105.686-78.928q1.368.194 2.738.4c31.517 20.978 65.611 45.787 102.611 74.945l.334-.521c-36.572-28.821-70.3-53.382-101.52-74.212.915.141 1.831.295 2.746.442 30.322 19.588 63.042 42.831 98.443 70.188l.329-.523c-34.946-27.005-67.27-49.987-97.271-69.423q1.321.217 2.644.445c29.145 18.199 60.482 39.839 94.299 65.402l.326-.528c-33.293-25.167-64.196-46.553-92.964-64.582.843.148 1.686.291 2.53.446 27.957 16.795 57.9 36.821 90.112 60.562l.319-.533c-31.64-23.321-61.105-43.075-88.642-59.694q1.238.234 2.477.475c26.75 15.375 55.277 33.766 85.848 55.651l.315-.536c-29.964-21.45-57.973-39.557-84.267-54.752.8.158 1.602.331 2.402.495 25.537 13.943 52.642 30.687 81.555 50.694l.305-.543c-28.228-19.533-54.737-35.964-79.746-49.713q1.114.232 2.23.473c24.314 12.495 49.983 27.581 77.215 45.681l.297-.548c-26.445-17.576-51.415-32.31-75.106-44.597.674.151 1.347.297 2.021.451 23.07 11.03 47.279 24.438 72.793 40.596l.287-.556c-24.59-15.572-47.963-28.58-70.28-39.383q.864.204 1.728.413c21.801 9.547 44.517 21.25 68.271 35.426l.274-.563c-22.615-13.496-44.281-24.732-65.122-34.025q.506.128 1.011.259c20.572 8.062 41.818 18.031 63.846 30.23l.257-.57c-20.212-11.194-39.764-20.507-58.744-28.201 19.055 6.509 38.529 14.639 58.497 24.673l.237-.583c-17.119-8.602-33.875-15.805-50.315-21.794 16.531 4.824 33.218 10.854 50.09 18.279l.212-.592c-20.057-8.829-39.853-15.695-59.435-20.899a430 430 0 0 0-9.559-3.129 478 478 0 0 0-10.105-3.677 497 497 0 0 0-10.356-4.123 507 507 0 0 0-10.837-4.634 571 571 0 0 0-10.917-4.901 622 622 0 0 0-10.926-5.149 631 631 0 0 0-11.482-5.636 659 659 0 0 0-11.892-6.008 700 700 0 0 0-11.308-5.888 747 747 0 0 0-11.294-6.041 732 732 0 0 0-13.37-7.289 786 786 0 0 0-11.671-6.492 850 850 0 0 0-11.538-6.539 886 886 0 0 0-13.372-7.701 864 864 0 0 0-12.442-7.262 890 890 0 0 0-12.572-7.434 919 919 0 0 0-12.826-7.675 971 971 0 0 0-12.497-7.554 1001 1001 0 0 0-12.277-7.497 1017 1017 0 0 0-12.3-7.582C276.465-23.85 205.655-12.784 168.504 38.545c-23.891 33.01-33.832 82.64-43.422 130.522-4.931 24.618-9.773 48.768-16.371 69.948-35.309-2.582-71.402-9.158-108.546-21.408z"/><defs><linearGradient id="a" x1="480.219" x2="30.271" y1="-261.018" y2="309.436" gradientUnits="userSpaceOnUse"><stop stop-color="#97FCF0"/><stop offset="1" stop-color="#61C7BB"/></linearGradient></defs></svg>